<?xml version="1.0" encoding="UTF-8"?>
<svg xmlns="http://www.w3.org/2000/svg" xmlns:xlink="http://www.w3.org/1999/xlink" baseProfile="tiny" contentScriptType="text/ecmascript" contentStyleType="text/css" height="16px" preserveAspectRatio="xMidYMid meet" version="1.1" viewBox="0 0 96 16" width="96px" x="0px" y="0px" zoomAndPan="magnify">
<g>
<rect fill="none" height="16" width="96"/>
<g>
<g fill-opacity="0.7" stroke-opacity="0.7">
<g>
<circle cx="77.602" cy="8.744" fill="#ffffff" fill-opacity="0.4" r="2.982" stroke-opacity="0.4"/>
<circle cx="77.602" cy="7.256" fill-opacity="0.9" r="2.982" stroke-opacity="0.9"/>
</g>
<rect fill="none" height="10" width="10" x="72.602" y="3"/>
</g>
<g fill-opacity="0.7" stroke-opacity="0.7">
<g>
<circle cx="62.801" cy="8.744" fill="#ffffff" fill-opacity="0.4" r="2.982" stroke-opacity="0.4"/>
<circle cx="62.801" cy="7.256" fill-opacity="0.9" r="2.982" stroke-opacity="0.9"/>
</g>
<rect fill="none" height="10" width="10" x="57.801" y="3"/>
</g>
<g fill-opacity="0.7" stroke-opacity="0.7">
<g>
<circle cx="18.398" cy="8.744" fill="#ffffff" fill-opacity="0.4" r="2.982" stroke-opacity="0.4"/>
<circle cx="18.398" cy="7.256" fill-opacity="0.9" r="2.982" stroke-opacity="0.9"/>
</g>
<rect fill="none" height="10" width="10" x="13.398" y="3"/>
</g>
<g fill-opacity="0.7" stroke-opacity="0.7">
<g>
<circle cx="33.199" cy="8.744" fill="#ffffff" fill-opacity="0.4" r="2.982" stroke-opacity="0.4"/>
<circle cx="33.199" cy="7.256" fill-opacity="0.9" r="2.982" stroke-opacity="0.9"/>
</g>
<rect fill="none" height="10" width="10" x="28.199" y="3"/>
</g>
<g fill-opacity="0.7" stroke-opacity="0.7">
<g>
<path d="M 48.0 12.699 C 44.705 12.699 43.301 11.295 43.301 8.002001 C 43.301 4.7070007 44.705 3.303001 48.0 3.303001 C 51.293 3.303001 52.699 4.7070007 52.699 8.002001 C 52.699 11.295 51.293 12.699 48.0 12.699 z " fill-opacity="0.1" stroke-opacity="0.1"/>
<path d="M 48.0 5.182 C 50.781 5.182 51.758 6.157 51.758 8.942 C 51.758 11.725 50.781 12.700001 48.0 12.700001 C 45.213 12.700001 44.242 11.725 44.242 8.942001 C 44.242 6.156 45.213 5.182 48.0 5.182 z " fill-opacity="0.5" stroke-opacity="0.5"/>
<path d="M 48.0 4.242 C 50.781 4.242 51.758 5.217 51.758 8.002 C 51.758 10.785 50.781 11.76 48.0 11.76 C 45.213 11.76 44.242 10.785 44.242 8.002001 C 44.242 5.217 45.213 4.242 48.0 4.242 z " fill="#dbd2bf"/>
</g>
<rect fill="none" height="10" width="10" x="43" y="3"/>
</g>
</g>
</g>
</svg>
