<?xml version="1.0" encoding="UTF-8"?>
<svg xmlns="http://www.w3.org/2000/svg" xmlns:xlink="http://www.w3.org/1999/xlink" baseProfile="tiny" contentScriptType="text/ecmascript" contentStyleType="text/css" height="42px" preserveAspectRatio="xMidYMid meet" version="1.1" viewBox="0 0 42 42" width="42px" x="0px" y="0px" zoomAndPan="magnify">
<path d="M 21.0 3.857 L 21.0 3.857 C 8.302 3.857 3.857 8.301 3.857 21.0 C 3.857 33.701 8.302 38.143 21.0 38.143 L 21.0 38.143 C 33.698 38.143 38.142 33.701996 38.142 20.999998 C 38.143 8.301 33.698 3.857 21.0 3.857 z " fill="#e7e2d7"/>
<linearGradient gradientUnits="userSpaceOnUse" id="SVGID_1_" x1="20.9995" x2="20.9995" xlink:actuate="onLoad" xlink:show="other" xlink:type="simple" y1="4.1431" y2="38.7565">
<stop offset="0" stop-color="#ffffff"/>
<stop offset="0.1404" stop-color="#ffffff" stop-opacity="0.8596"/>
<stop offset="1" stop-color="#ffffff" stop-opacity="0"/>
</linearGradient>
<path d="M 21.0 3.857 L 21.0 3.857 C 8.302 3.857 3.857 8.301 3.857 21.0 C 3.857 33.701 8.302 38.143 21.0 38.143 L 21.0 38.143 C 33.698 38.143 38.142 33.701996 38.142 20.999998 C 38.143 8.301 33.698 3.857 21.0 3.857 z " fill="url(#SVGID_1_)" fill-opacity="0.3" stroke-opacity="0.3"/>
<linearGradient gradientUnits="userSpaceOnUse" id="SVGID_2_" x1="21.0005" x2="21.0005" xlink:actuate="onLoad" xlink:show="other" xlink:type="simple" y1="39" y2="3.0005">
<stop offset="0" stop-color="#ffffff"/>
<stop offset="1" stop-color="#ffffff" stop-opacity="0.5"/>
</linearGradient>
<path d="M 21.0 3.857 C 33.698 3.857 38.142 8.3 38.142 21.0 C 38.142 33.701 33.698 38.143 20.999998 38.143 L 20.999998 38.143 C 8.302 38.143 3.857 33.701 3.857 21.0 C 3.857 8.301 8.302 3.857 21.0 3.857 L 21.0 3.857 M 21.0 3.0 L 21.0 3.0 C 7.878 3.0 3.0 7.879 3.0 21.0 C 3.0 34.122 7.878 39.0 21.0 39.0 L 21.0 39.0 C 34.122 39.0 39.0 34.122 39.0 21.0 C 39.0 7.879 34.122 3.0 21.0 3.0 L 21.0 3.0 z " fill="url(#SVGID_2_)" fill-opacity="0.35" stroke-opacity="0.35"/>
<path d="M 19.027 30.863 L 31.213 18.791 C 31.717 18.283 31.750002 17.359 31.275002 16.886 L 30.206 15.816999 C 29.973 15.582999 29.655 15.455999 29.31 15.455999 C 28.942 15.455999 28.574 15.61 28.304 15.879999 L 17.98 26.093 L 13.726 22.127 C 13.453 21.855 13.085 21.699 12.712999 21.703 C 12.369999 21.703 12.056999 21.829 11.823999 22.065 L 10.752999 23.134 C 10.52 23.365002 10.389999 23.685 10.389999 24.026 C 10.389999 24.398 10.549 24.766 10.818999 25.039 L 16.829 30.755 C 16.961 30.895 17.121998 30.996 17.308 31.074 C 17.825 31.421 18.556 31.334 19.027 30.863 z " fill-opacity="0.5" stroke-opacity="0.5"/>
<linearGradient gradientUnits="userSpaceOnUse" id="SVGID_3_" x1="21.0005" x2="21.0005" xlink:actuate="onLoad" xlink:show="other" xlink:type="simple" y1="13.2856" y2="29.5742">
<stop offset="0" stop-color="#b4ad9e"/>
<stop offset="1" stop-color="#bab5a2"/>
</linearGradient>
<path d="M 19.027 29.277 L 31.213 17.205002 C 31.717 16.696001 31.750002 15.773002 31.275002 15.300002 L 30.206 14.231002 C 29.973 13.997002 29.655 13.869001 29.31 13.869001 C 28.942 13.869001 28.574 14.024001 28.304 14.294002 L 17.98 24.506 L 13.726 20.541 C 13.453 20.269 13.085 20.113 12.712999 20.117 C 12.369999 20.117 12.056999 20.244 11.823999 20.479 L 10.752999 21.547 C 10.52 21.78 10.389999 22.098 10.389999 22.44 C 10.389999 22.812 10.549 23.18 10.818999 23.453 L 16.829 29.169 C 16.961 29.309 17.121998 29.41 17.308 29.488 C 17.825 29.835 18.556 29.748 19.027 29.277 z " fill="url(#SVGID_3_)"/>
<path d="M 21.0 3.857 C 8.302 3.857 3.857 8.301 3.857 21.0 C 3.857 33.701 8.302 38.143 21.0 38.143 C 33.698 38.143 38.142 33.701996 38.142 20.999998 C 38.143 8.301 33.698 3.857 21.0 3.857 z M 21.0 35.571 C 9.834 35.571 6.429 32.167 6.429 21.0 C 6.429 9.833 9.834 6.429 21.0 6.429 C 32.167 6.429 35.572 9.833 35.572 21.0 C 35.572 32.167 32.168 35.571 21.0 35.571 z " fill="url(#SVGID_6_)" fill-opacity="0.05" stroke-opacity="0.05"/>
<path d="M 21.0 3.857 C 8.302 3.857 3.857 8.301 3.857 21.0 C 3.857 33.701 8.302 38.143 21.0 38.143 C 33.698 38.143 38.142 33.701996 38.142 20.999998 C 38.143 8.301 33.698 3.857 21.0 3.857 z M 21.0 36.428 C 9.322 36.428 5.572 32.68 5.572 21.0 C 5.572 9.32 9.322 5.571 21.0 5.571 C 32.68 5.571 36.428 9.32 36.428 21.0 C 36.428 32.68 32.681 36.428 21.0 36.428 z " fill="url(#SVGID_6_)" fill-opacity="0.1" stroke-opacity="0.1"/>
<path d="M 21.0 3.857 C 8.302 3.857 3.857 8.301 3.857 21.0 C 3.857 33.701 8.302 38.143 21.0 38.143 C 33.698 38.143 38.142 33.701996 38.142 20.999998 C 38.143 8.301 33.698 3.857 21.0 3.857 z M 21.0 37.285 C 8.824 37.285 4.714 33.176 4.714 21.0 C 4.714 8.824001 8.824 4.715 21.0 4.715 C 33.177002 4.715 37.286 8.824 37.286 21.0 C 37.286 33.176 33.178 37.285 21.0 37.285 z " fill="url(#SVGID_6_)" fill-opacity="0.15" stroke-opacity="0.15"/>
<rect fill="none" height="42" width="42"/>
<defs>
<linearGradient gradientUnits="userSpaceOnUse" id="SVGID_6_" x1="20.9995" x2="20.9995" xlink:actuate="onLoad" xlink:show="other" xlink:type="simple" y1="4.5005" y2="37.2861">
<stop offset="0" stop-color="#000000"/>
<stop offset="1" stop-color="#000000" stop-opacity="0"/>
</linearGradient>
</defs>
</svg>
