<?xml version="1.0" encoding="UTF-8"?>
<svg xmlns="http://www.w3.org/2000/svg" xmlns:xlink="http://www.w3.org/1999/xlink" baseProfile="tiny" contentScriptType="text/ecmascript" contentStyleType="text/css" height="42px" preserveAspectRatio="xMidYMid meet" version="1.1" viewBox="0 0 42 42" width="42px" x="0px" y="0px" zoomAndPan="magnify">
<path d="M 21.001 3.857 L 21.001 3.857 C 8.303 3.857 3.857 8.301 3.857 21.0 C 3.857 33.701 8.302 38.143 21.001 38.143 L 21.001 38.143 C 33.698 38.143 38.143997 33.701996 38.143997 20.999998 C 38.144 8.301 33.698 3.857 21.001 3.857 z " fill="#e7e2d7" fill-opacity="0.4" stroke-opacity="0.4"/>
<linearGradient gradientUnits="userSpaceOnUse" id="SVGID_1_" x1="21.0005" x2="21.0005" xlink:actuate="onLoad" xlink:show="other" xlink:type="simple" y1="4.1431" y2="38.7565">
<stop offset="0" stop-color="#ffffff"/>
<stop offset="0.1404" stop-color="#ffffff" stop-opacity="0.8596"/>
<stop offset="1" stop-color="#ffffff" stop-opacity="0"/>
</linearGradient>
<path d="M 21.001 3.857 L 21.001 3.857 C 8.303 3.857 3.857 8.301 3.857 21.0 C 3.857 33.701 8.302 38.143 21.001 38.143 L 21.001 38.143 C 33.698 38.143 38.143997 33.701996 38.143997 20.999998 C 38.144 8.301 33.698 3.857 21.001 3.857 z " fill="url(#SVGID_1_)" fill-opacity="0.1" stroke-opacity="0.1"/>
<linearGradient gradientUnits="userSpaceOnUse" id="SVGID_2_" x1="21.0005" x2="21.0005" xlink:actuate="onLoad" xlink:show="other" xlink:type="simple" y1="39" y2="3.0005">
<stop offset="0" stop-color="#ffffff"/>
<stop offset="1" stop-color="#ffffff" stop-opacity="0.5"/>
</linearGradient>
<path d="M 21.001 3.857 C 33.698 3.857 38.143997 8.3 38.143997 21.0 C 38.143997 33.701 33.698997 38.143 21.000998 38.143 L 21.000998 38.143 C 8.303 38.143 3.857 33.701 3.857 21.0 C 3.857 8.301 8.303 3.857 21.001 3.857 L 21.001 3.857 M 21.001 3.0 L 21.001 3.0 C 7.879 3.0 3.0 7.879 3.0 21.0 C 3.0 34.122 7.879 39.0 21.001 39.0 L 21.001 39.0 C 34.122 39.0 39.0 34.122 39.0 21.0 C 39.0 7.879 34.122 3.0 21.001 3.0 L 21.001 3.0 z " fill="url(#SVGID_2_)" fill-opacity="0.15" stroke-opacity="0.15"/>
<linearGradient gradientUnits="userSpaceOnUse" id="SVGID_3_" x1="21.0005" x2="21.0005" xlink:actuate="onLoad" xlink:show="other" xlink:type="simple" y1="13.2856" y2="29.5742">
<stop offset="0" stop-color="#ffffff"/>
<stop offset="1" stop-color="#d7d7d7"/>
</linearGradient>
<path d="M 19.027 29.277 L 31.213 17.205002 C 31.717 16.697002 31.750002 15.773002 31.275002 15.300002 L 30.206 14.231002 C 29.973 13.997002 29.655 13.869001 29.31 13.869001 C 28.941002 13.869001 28.573002 14.024001 28.303 14.294002 L 17.98 24.506 L 13.726 20.541 C 13.454 20.269 13.085 20.113 12.712999 20.117 C 12.369 20.117 12.056999 20.244 11.822999 20.479 L 10.751999 21.548 C 10.519999 21.78 10.388999 22.099 10.388999 22.44 C 10.388999 22.812 10.547999 23.18 10.817999 23.453 L 16.829 29.169 C 16.961 29.309 17.121998 29.41 17.308 29.488 C 17.825 29.835 18.557 29.748 19.027 29.277 z " fill="url(#SVGID_3_)" fill-opacity="0.4" stroke-opacity="0.4"/>
<path d="M 31.213 17.205 L 19.027 29.277 C 18.556 29.748 17.825 29.835 17.307 29.488 C 17.121 29.410002 16.96 29.308 16.828 29.169 L 10.817001 23.453 C 10.756001 23.392 10.703001 23.324 10.654001 23.254002 C 10.486001 23.471 10.388001 23.740002 10.388001 24.027002 C 10.388001 24.398005 10.547002 24.766005 10.817001 25.039 L 16.828 30.755 C 16.96 30.895 17.121 30.997002 17.307 31.074 C 17.825 31.421 18.556002 31.334002 19.027 30.863 L 31.213 18.791 C 31.683 18.317 31.725 17.495 31.345 17.001 C 31.3 17.068 31.271 17.146 31.213 17.205 z " fill-opacity="0.2" stroke-opacity="0.2"/>
<path d="M 21.001 3.857 C 8.303 3.857 3.857 8.301 3.857 21.0 C 3.857 33.701 8.302 38.143 21.001 38.143 C 33.698 38.143 38.143997 33.701996 38.143997 20.999998 C 38.144 8.301 33.698 3.857 21.001 3.857 z M 21.001 35.571 C 9.834 35.571 6.429 32.167 6.429 21.0 C 6.429 9.833 9.834 6.429 21.001 6.429 C 32.169 6.429 35.572 9.833 35.572 21.0 C 35.572 32.167 32.169 35.571 21.001 35.571 z " fill="url(#SVGID_6_)" fill-opacity="0.02" stroke-opacity="0.02"/>
<path d="M 21.001 3.857 C 8.303 3.857 3.857 8.301 3.857 21.0 C 3.857 33.701 8.302 38.143 21.001 38.143 C 33.698 38.143 38.143997 33.701996 38.143997 20.999998 C 38.144 8.301 33.698 3.857 21.001 3.857 z M 21.001 36.429 C 9.322 36.429 5.572 32.68 5.572 21.0 C 5.572 9.32 9.322 5.572 21.001 5.572 C 32.681 5.572 36.429 9.32 36.429 21.0 C 36.429 32.68 32.681 36.429 21.001 36.429 z " fill="url(#SVGID_6_)" fill-opacity="0.04" stroke-opacity="0.04"/>
<path d="M 21.001 3.857 C 8.303 3.857 3.857 8.301 3.857 21.0 C 3.857 33.701 8.302 38.143 21.001 38.143 C 33.698 38.143 38.143997 33.701996 38.143997 20.999998 C 38.144 8.301 33.698 3.857 21.001 3.857 z M 21.001 37.285 C 8.824 37.285 4.715 33.177 4.715 21.0 C 4.715 8.824 8.824 4.715 21.001 4.715 C 33.177998 4.715 37.286 8.824 37.286 21.0 C 37.286 33.177 33.178 37.285 21.001 37.285 z " fill="url(#SVGID_6_)" fill-opacity="0.06" stroke-opacity="0.06"/>
<rect fill="none" height="42" width="42"/>
<defs>
<linearGradient gradientUnits="userSpaceOnUse" id="SVGID_6_" x1="21.0005" x2="21.0005" xlink:actuate="onLoad" xlink:show="other" xlink:type="simple" y1="4.5005" y2="37.2861">
<stop offset="0" stop-color="#000000"/>
<stop offset="1" stop-color="#000000" stop-opacity="0"/>
</linearGradient>
</defs>
</svg>
