<?xml version="1.0" encoding="UTF-8"?>
<svg xmlns="http://www.w3.org/2000/svg" xmlns:xlink="http://www.w3.org/1999/xlink" baseProfile="tiny" contentScriptType="text/ecmascript" contentStyleType="text/css" height="20px" preserveAspectRatio="xMidYMid meet" version="1.1" viewBox="0 0 306 20" width="306px" x="0px" y="0px" zoomAndPan="magnify">
<g>
<g>
<path d="M 5.691 15.336 C 1.1100001 15.336 0.49300003 12.648001 0.49300003 10.018001 C 0.49300003 7.395001 1.11 4.713001 5.691 4.713001 L 300.31 4.713001 C 304.88998 4.713001 305.507 7.402001 305.507 10.033001 C 305.507 12.654001 304.88998 15.336 300.31 15.336 L 5.691 15.336 z " fill="url(#SVGID_1_)" fill-opacity="0.3" stroke-opacity="0.3"/>
<path d="M 300.31 5.713 C 303.735 5.713 304.507 7.233 304.507 10.033 C 304.507 12.818 303.757 14.336 300.31 14.336 L 5.691 14.336 C 2.265 14.336 1.493 12.816 1.493 10.018001 C 1.493 7.231001 2.243 5.713001 5.691 5.713001 L 300.31 5.713001 " fill="#e7e2d7"/>
<defs>
<linearGradient gradientUnits="userSpaceOnUse" id="SVGID_1_" x1="153.0002" x2="153.0002" xlink:actuate="onLoad" xlink:show="other" xlink:type="simple" y1="15.3359" y2="4.7134">
<stop offset="0" stop-color="#2e2e2e"/>
<stop offset="1" stop-color="#2e2e2e" stop-opacity="0"/>
</linearGradient>
</defs>
</g>
<rect fill="none" height="20" width="306" x="0" y="0.023"/>
<g fill-opacity="0.5" stroke-opacity="0.5">
<polygon fill="#2e2e2e" points="15.066,5.728 7.097,13.705 10.113,13.706 18.066,5.728   "/>
<path d="M 4.89 5.728 L 4.868 5.75 C 4.9700003 5.742 5.073 5.732 5.182 5.728 L 4.89 5.728 z " fill="#2e2e2e"/>
<path d="M 5.182 5.728 C 5.073 5.732 4.969 5.742 4.868 5.75 L 1.5280001 9.094 C 1.5050001 9.385 1.4930001 9.691999 1.4930001 10.018 C 1.4930001 10.752 1.5490001 11.396 1.6880002 11.95 L 7.89 5.728 L 5.182 5.728 z " fill="#2e2e2e"/>
<polygon fill="#2e2e2e" points="25.222,5.728 17.254,13.706 20.269,13.706 28.222,5.728   "/>
<polygon fill="#2e2e2e" points="35.377,5.728 27.408,13.706 30.424,13.706 38.377,5.728   "/>
<polygon fill="#2e2e2e" points="45.533,5.728 37.564,13.706 40.58,13.706 48.533,5.728   "/>
<polygon fill="#2e2e2e" points="55.688,5.728 47.719,13.706 50.735,13.706 58.688,5.728   "/>
<polygon fill="#2e2e2e" points="65.844,5.728 57.875,13.706 60.89,13.706 68.844,5.728   "/>
<polygon fill="#2e2e2e" points="76,5.727 68.031,13.706 71.047,13.706 79,5.727   "/>
<polygon fill="#2e2e2e" points="86.155,5.727 78.186,13.706 81.202,13.706 89.155,5.727   "/>
<polygon fill="#2e2e2e" points="96.31,5.727 88.342,13.706 91.357,13.706 99.31,5.727   "/>
<polygon fill="#2e2e2e" points="106.467,5.727 98.498,13.706 101.513,13.706 109.467,5.727   "/>
<polygon fill="#2e2e2e" points="116.621,5.728 108.652,13.706 111.668,13.706 119.621,5.728   "/>
<polygon fill="#2e2e2e" points="126.777,5.728 118.808,13.706 121.824,13.706 129.777,5.728   "/>
<polygon fill="#2e2e2e" points="136.932,5.728 128.964,13.706 131.979,13.706 139.932,5.728   "/>
<polygon fill="#2e2e2e" points="147.088,5.727 139.119,13.706 142.135,13.706 150.088,5.727   "/>
<polygon fill="#2e2e2e" points="157.244,5.728 149.275,13.706 152.291,13.706 160.244,5.728   "/>
<polygon fill="#2e2e2e" points="167.399,5.728 159.43,13.706 162.446,13.706 170.399,5.728   "/>
<polygon fill="#2e2e2e" points="177.554,5.727 169.586,13.706 172.601,13.706 180.554,5.727   "/>
<polygon fill="#2e2e2e" points="187.711,5.727 179.742,13.706 182.758,13.706 190.711,5.727   "/>
<polygon fill="#2e2e2e" points="197.866,5.728 189.897,13.706 192.913,13.706 200.866,5.728   "/>
<polygon fill="#2e2e2e" points="208.021,5.727 200.052,13.706 203.068,13.706 211.021,5.727   "/>
<polygon fill="#2e2e2e" points="218.177,5.728 210.209,13.706 213.224,13.706 221.177,5.728   "/>
<polygon fill="#2e2e2e" points="228.332,5.727 220.363,13.706 223.379,13.706 231.332,5.727   "/>
<polygon fill="#2e2e2e" points="238.488,5.727 230.519,13.706 233.535,13.706 241.488,5.727   "/>
<polygon fill="#2e2e2e" points="248.643,5.727 240.675,13.706 243.69,13.706 251.643,5.727   "/>
<polygon fill="#2e2e2e" points="258.799,5.727 250.83,13.706 253.845,13.706 261.799,5.727   "/>
<polygon fill="#2e2e2e" points="268.955,5.727 260.986,13.706 264.002,13.706 271.955,5.727   "/>
<polygon fill="#2e2e2e" points="279.11,5.727 271.141,13.706 274.157,13.706 282.11,5.727   "/>
<polygon fill="#2e2e2e" points="289.265,5.727 281.297,13.706 284.312,13.706 292.265,5.727   "/>
<path d="M 302.422 5.728 L 300.816 5.728 C 301.353 5.754 301.814 5.827 302.212 5.939 L 302.422 5.728 z " fill="#2e2e2e"/>
<path d="M 291.453 13.706 L 294.469 13.706 L 302.212 5.938 C 301.814 5.826 301.353 5.7530003 300.816 5.727 L 299.422 5.727 L 291.453 13.706 z " fill="#2e2e2e"/>
<path d="M 304.48 10.829 L 301.60703 13.706 L 303.157 13.706 C 304.046 13.127 304.391 12.154 304.48 10.829 z " fill="#2e2e2e"/>
</g>
<g>
<path d="M 5.689 7.402 L 300.134 7.402 C 303.21802 7.402 304.146 8.642 304.3 10.929 C 304.31998 10.671 304.33298 10.409 304.33298 10.124 C 304.33298 7.323 303.56097 5.8039994 300.13397 5.8039994 L 5.689 5.8039994 C 2.242 5.8039994 1.493 7.322 1.493 10.108999 C 1.493 10.388 1.5070001 10.645999 1.524 10.9 C 1.68 8.633 2.594 7.402 5.689 7.402 z " fill="#191919" fill-opacity="0.1" stroke-opacity="0.1"/>
<path d="M 5.689 6.604 L 300.134 6.604 C 303.388 6.604 304.239 7.991 304.318 10.528 C 304.32098 10.393 304.33398 10.268 304.33398 10.125999 C 304.33398 7.3249993 303.56198 5.8059993 300.13498 5.8059993 L 5.689 5.8059993 C 2.242 5.8059993 1.493 7.3239994 1.493 10.110999 C 1.493 10.251999 1.5040001 10.372999 1.5090001 10.506999 C 1.588 7.984 2.42 6.604 5.689 6.604 z " fill="#6f6f6e"/>
</g>
</g>
</svg>
