<?xml version="1.0" encoding="UTF-8"?>
<svg xmlns="http://www.w3.org/2000/svg" xmlns:xlink="http://www.w3.org/1999/xlink" baseProfile="tiny" contentScriptType="text/ecmascript" contentStyleType="text/css" height="20px" preserveAspectRatio="xMidYMid meet" version="1.1" viewBox="0 0 306 20" width="306px" x="0px" y="0px" zoomAndPan="magnify">
<g>
<g>
<path d="M 5.691 15.313 C 1.1100001 15.313 0.49300003 12.625 0.49300003 9.995 C 0.49300003 7.372 1.11 4.69 5.691 4.69 L 300.31 4.69 C 304.88998 4.69 305.507 7.379 305.507 10.01 C 305.507 12.6310005 304.88998 15.313 300.31 15.313 L 5.691 15.313 z " fill="url(#SVGID_1_)" fill-opacity="0.3" stroke-opacity="0.3"/>
<path d="M 300.31 5.689 C 303.735 5.689 304.507 7.209 304.507 10.009001 C 304.507 12.794001 303.757 14.312 300.31 14.312 L 5.691 14.312 C 2.265 14.312 1.493 12.792 1.493 9.994 C 1.493 7.2070007 2.243 5.6890006 5.691 5.6890006 L 300.31 5.6890006 " fill="#e7e2d7"/>
<defs>
<linearGradient gradientUnits="userSpaceOnUse" id="SVGID_1_" x1="153.0002" x2="153.0002" xlink:actuate="onLoad" xlink:show="other" xlink:type="simple" y1="15.3125" y2="4.6899">
<stop offset="0" stop-color="#2e2e2e"/>
<stop offset="1" stop-color="#2e2e2e" stop-opacity="0"/>
</linearGradient>
</defs>
</g>
<rect fill="none" height="20" width="306" x="0"/>
<g fill-opacity="0.5" stroke-opacity="0.5">
<path d="M 12.066 5.704 L 9.066 5.704 L 2.013 12.764999 C 2.216 13.134999 2.488 13.443999 2.855 13.681999 L 4.113 13.683 L 12.066 5.704 z " fill="#2e2e2e"/>
<polygon fill="#2e2e2e" points="19.222,5.704 11.254,13.683 14.269,13.683 22.222,5.704   "/>
<polygon fill="#2e2e2e" points="29.377,5.704 21.408,13.683 24.424,13.683 32.377,5.704   "/>
<polygon fill="#2e2e2e" points="39.533,5.704 31.564,13.683 34.58,13.683 42.533,5.704   "/>
<polygon fill="#2e2e2e" points="49.688,5.704 41.719,13.683 44.735,13.683 52.688,5.704   "/>
<polygon fill="#2e2e2e" points="59.844,5.704 51.875,13.683 54.89,13.683 62.844,5.704   "/>
<polygon fill="#2e2e2e" points="70,5.703 62.031,13.683 65.047,13.683 73,5.703   "/>
<polygon fill="#2e2e2e" points="80.155,5.703 72.186,13.683 75.202,13.683 83.155,5.703   "/>
<polygon fill="#2e2e2e" points="90.31,5.703 82.342,13.683 85.357,13.683 93.31,5.703   "/>
<polygon fill="#2e2e2e" points="100.467,5.703 92.498,13.683 95.513,13.683 103.467,5.703   "/>
<polygon fill="#2e2e2e" points="110.621,5.704 102.652,13.683 105.668,13.683 113.621,5.704   "/>
<polygon fill="#2e2e2e" points="120.777,5.704 112.808,13.683 115.824,13.683 123.777,5.704   "/>
<polygon fill="#2e2e2e" points="130.932,5.704 122.964,13.683 125.979,13.683 133.932,5.704   "/>
<polygon fill="#2e2e2e" points="141.088,5.703 133.119,13.683 136.135,13.683 144.088,5.703   "/>
<polygon fill="#2e2e2e" points="151.244,5.704 143.275,13.683 146.291,13.683 154.244,5.704   "/>
<polygon fill="#2e2e2e" points="161.399,5.704 153.43,13.683 156.446,13.683 164.399,5.704   "/>
<polygon fill="#2e2e2e" points="171.554,5.703 163.586,13.683 166.601,13.683 174.554,5.703   "/>
<polygon fill="#2e2e2e" points="181.711,5.703 173.742,13.683 176.758,13.683 184.711,5.703   "/>
<polygon fill="#2e2e2e" points="191.866,5.704 183.897,13.683 186.913,13.683 194.866,5.704   "/>
<polygon fill="#2e2e2e" points="202.021,5.703 194.052,13.683 197.068,13.683 205.021,5.703   "/>
<polygon fill="#2e2e2e" points="212.177,5.704 204.209,13.683 207.224,13.683 215.177,5.704   "/>
<polygon fill="#2e2e2e" points="222.332,5.703 214.363,13.683 217.379,13.683 225.332,5.703   "/>
<polygon fill="#2e2e2e" points="232.488,5.703 224.519,13.683 227.535,13.683 235.488,5.703   "/>
<polygon fill="#2e2e2e" points="242.643,5.703 234.675,13.683 237.69,13.683 245.643,5.703   "/>
<polygon fill="#2e2e2e" points="252.799,5.703 244.83,13.683 247.845,13.683 255.799,5.703   "/>
<polygon fill="#2e2e2e" points="262.955,5.703 254.986,13.683 258.002,13.683 265.955,5.703   "/>
<polygon fill="#2e2e2e" points="273.11,5.703 265.141,13.683 268.157,13.683 276.11,5.703   "/>
<polygon fill="#2e2e2e" points="283.265,5.703 275.297,13.683 278.312,13.683 286.265,5.703   "/>
<polygon fill="#2e2e2e" points="293.422,5.704 285.453,13.683 288.469,13.683 296.422,5.704   "/>
<path d="M 298.623 13.683 L 304.28897 7.998 C 304.07898 7.227 303.68896 6.641 303.02698 6.2539997 L 295.60696 13.683 L 298.623 13.683 z " fill="#2e2e2e"/>
</g>
<g>
<path d="M 5.689 7.379 L 300.134 7.379 C 303.21802 7.379 304.146 8.619 304.3 10.906 C 304.31998 10.648 304.33298 10.386 304.33298 10.101 C 304.33298 7.3 303.56097 5.7809997 300.13397 5.7809997 L 5.689 5.7809997 C 2.242 5.7809997 1.493 7.299 1.493 10.086 C 1.493 10.365 1.5070001 10.622999 1.524 10.877 C 1.68 8.609 2.594 7.379 5.689 7.379 z " fill="#191919" fill-opacity="0.1" stroke-opacity="0.1"/>
<path d="M 5.689 6.58 L 300.134 6.58 C 303.388 6.58 304.239 7.967 304.318 10.504 C 304.32098 10.369 304.33398 10.244 304.33398 10.101999 C 304.33398 7.300999 303.56198 5.781999 300.13498 5.781999 L 5.689 5.781999 C 2.242 5.781999 1.493 7.299999 1.493 10.086999 C 1.493 10.227999 1.5040001 10.348999 1.5090001 10.482999 C 1.588 7.961 2.42 6.58 5.689 6.58 z " fill="#6f6f6e"/>
</g>
</g>
</svg>
