<?xml version="1.0" encoding="UTF-8"?>
<svg xmlns="http://www.w3.org/2000/svg" xmlns:xlink="http://www.w3.org/1999/xlink" baseProfile="tiny" contentScriptType="text/ecmascript" contentStyleType="text/css" height="20px" preserveAspectRatio="xMidYMid meet" version="1.1" viewBox="0 0 306 20" width="306px" x="0px" y="0px" zoomAndPan="magnify">
<g>
<g>
<path d="M 5.691 15.313 C 1.1100001 15.313 0.49300003 12.625 0.49300003 9.995 C 0.49300003 7.372 1.11 4.69 5.691 4.69 L 300.31 4.69 C 304.88998 4.69 305.507 7.379 305.507 10.01 C 305.507 12.6310005 304.88998 15.313 300.31 15.313 L 5.691 15.313 z " fill="url(#SVGID_1_)" fill-opacity="0.3" stroke-opacity="0.3"/>
<path d="M 300.31 5.689 C 303.735 5.689 304.507 7.209 304.507 10.009001 C 304.507 12.794001 303.757 14.312 300.31 14.312 L 5.691 14.312 C 2.265 14.312 1.493 12.792 1.493 9.994 C 1.493 7.2070007 2.243 5.6890006 5.691 5.6890006 L 300.31 5.6890006 " fill="#e7e2d7"/>
<defs>
<linearGradient gradientUnits="userSpaceOnUse" id="SVGID_1_" x1="153.0002" x2="153.0002" xlink:actuate="onLoad" xlink:show="other" xlink:type="simple" y1="15.3125" y2="4.6899">
<stop offset="0" stop-color="#2e2e2e"/>
<stop offset="1" stop-color="#2e2e2e" stop-opacity="0"/>
</linearGradient>
</defs>
</g>
<rect fill="none" height="20" width="306" x="0"/>
<g fill-opacity="0.5" stroke-opacity="0.5">
<polygon fill="#2e2e2e" points="18.066,5.704 10.097,13.682 13.113,13.683 21.066,5.704   "/>
<path d="M 10.89 5.704 L 7.89 5.704 L 1.6850004 11.915 C 1.8780004 12.686 2.2370005 13.28 2.8550005 13.683 L 2.9370005 13.683 L 10.89 5.704 z " fill="#2e2e2e"/>
<polygon fill="#2e2e2e" points="28.222,5.704 20.254,13.683 23.269,13.683 31.222,5.704   "/>
<polygon fill="#2e2e2e" points="38.377,5.704 30.408,13.683 33.424,13.683 41.377,5.704   "/>
<polygon fill="#2e2e2e" points="48.533,5.704 40.564,13.683 43.58,13.683 51.533,5.704   "/>
<polygon fill="#2e2e2e" points="58.688,5.704 50.719,13.683 53.735,13.683 61.688,5.704   "/>
<polygon fill="#2e2e2e" points="68.844,5.704 60.875,13.683 63.89,13.683 71.844,5.704   "/>
<polygon fill="#2e2e2e" points="79,5.703 71.031,13.683 74.047,13.683 82,5.703   "/>
<polygon fill="#2e2e2e" points="89.155,5.703 81.186,13.683 84.202,13.683 92.155,5.703   "/>
<polygon fill="#2e2e2e" points="99.31,5.703 91.342,13.683 94.357,13.683 102.31,5.703   "/>
<polygon fill="#2e2e2e" points="109.467,5.703 101.498,13.683 104.513,13.683 112.467,5.703   "/>
<polygon fill="#2e2e2e" points="119.621,5.704 111.652,13.683 114.668,13.683 122.621,5.704   "/>
<polygon fill="#2e2e2e" points="129.777,5.704 121.808,13.683 124.824,13.683 132.777,5.704   "/>
<polygon fill="#2e2e2e" points="139.932,5.704 131.964,13.683 134.979,13.683 142.932,5.704   "/>
<polygon fill="#2e2e2e" points="150.088,5.703 142.119,13.683 145.135,13.683 153.088,5.703   "/>
<polygon fill="#2e2e2e" points="160.244,5.704 152.275,13.683 155.291,13.683 163.244,5.704   "/>
<polygon fill="#2e2e2e" points="170.399,5.704 162.43,13.683 165.446,13.683 173.399,5.704   "/>
<polygon fill="#2e2e2e" points="180.554,5.703 172.586,13.683 175.601,13.683 183.554,5.703   "/>
<polygon fill="#2e2e2e" points="190.711,5.703 182.742,13.683 185.758,13.683 193.711,5.703   "/>
<polygon fill="#2e2e2e" points="200.866,5.704 192.897,13.683 195.913,13.683 203.866,5.704   "/>
<polygon fill="#2e2e2e" points="211.021,5.703 203.052,13.683 206.068,13.683 214.021,5.703   "/>
<polygon fill="#2e2e2e" points="221.177,5.704 213.209,13.683 216.224,13.683 224.177,5.704   "/>
<polygon fill="#2e2e2e" points="231.332,5.703 223.363,13.683 226.379,13.683 234.332,5.703   "/>
<polygon fill="#2e2e2e" points="241.488,5.703 233.519,13.683 236.535,13.683 244.488,5.703   "/>
<polygon fill="#2e2e2e" points="251.643,5.703 243.675,13.683 246.69,13.683 254.643,5.703   "/>
<polygon fill="#2e2e2e" points="261.799,5.703 253.83,13.683 256.845,13.683 264.799,5.703   "/>
<polygon fill="#2e2e2e" points="271.955,5.703 263.986,13.683 267.002,13.683 274.955,5.703   "/>
<polygon fill="#2e2e2e" points="282.11,5.703 274.141,13.683 277.157,13.683 285.11,5.703   "/>
<polygon fill="#2e2e2e" points="292.265,5.703 284.297,13.683 287.312,13.683 295.265,5.703   "/>
<path d="M 297.469 13.683 L 303.95398 7.177 C 303.60297 6.575 303.04898 6.1519995 302.21097 5.9149995 L 294.45297 13.683 L 297.469 13.683 z " fill="#2e2e2e"/>
</g>
<g>
<path d="M 5.689 7.379 L 300.134 7.379 C 303.21802 7.379 304.146 8.619 304.3 10.906 C 304.31998 10.648 304.33298 10.386 304.33298 10.101 C 304.33298 7.3 303.56097 5.7809997 300.13397 5.7809997 L 5.689 5.7809997 C 2.242 5.7809997 1.493 7.299 1.493 10.086 C 1.493 10.365 1.5070001 10.622999 1.524 10.877 C 1.68 8.609 2.594 7.379 5.689 7.379 z " fill="#191919" fill-opacity="0.1" stroke-opacity="0.1"/>
<path d="M 5.689 6.58 L 300.134 6.58 C 303.388 6.58 304.239 7.967 304.318 10.504 C 304.32098 10.369 304.33398 10.244 304.33398 10.101999 C 304.33398 7.300999 303.56198 5.781999 300.13498 5.781999 L 5.689 5.781999 C 2.242 5.781999 1.493 7.299999 1.493 10.086999 C 1.493 10.227999 1.5040001 10.348999 1.5090001 10.482999 C 1.588 7.961 2.42 6.58 5.689 6.58 z " fill="#6f6f6e"/>
</g>
</g>
</svg>
