<?xml version="1.0" encoding="UTF-8"?>
<svg xmlns="http://www.w3.org/2000/svg" xmlns:xlink="http://www.w3.org/1999/xlink" baseProfile="tiny" contentScriptType="text/ecmascript" contentStyleType="text/css" height="16px" preserveAspectRatio="xMidYMid meet" version="1.1" viewBox="0 0 96 16" width="96px" x="0px" y="0px" zoomAndPan="magnify">
<g>
<rect fill="none" height="16" width="96" x="0"/>
<g>
<g fill-opacity="0.7" stroke-opacity="0.7">
<g>
<circle cx="62.801" cy="8.744" fill="#ffffff" fill-opacity="0.4" r="2.982" stroke-opacity="0.4"/>
<circle cx="62.801" cy="7.256" fill-opacity="0.9" r="2.982" stroke-opacity="0.9"/>
</g>
<rect fill="none" height="10" width="10" x="57.801" y="3"/>
</g>
<g fill-opacity="0.7" stroke-opacity="0.7">
<g>
<circle cx="33.2" cy="8.744" fill="#ffffff" fill-opacity="0.4" r="2.982" stroke-opacity="0.4"/>
<circle cx="33.2" cy="7.256" fill-opacity="0.9" r="2.982" stroke-opacity="0.9"/>
</g>
<rect fill="none" height="10" width="10" x="28.2" y="3"/>
</g>
<g fill-opacity="0.7" stroke-opacity="0.7">
<g>
<path d="M 48.0 12.697 C 44.705 12.697 43.301 11.292999 43.301 8.0 C 43.301 4.704999 44.705 3.3029995 48.0 3.3029995 C 51.292 3.3029995 52.699 4.704999 52.699 8.0 C 52.699 11.293 51.293 12.697 48.0 12.697 z " fill-opacity="0.1" stroke-opacity="0.1"/>
<path d="M 48.0 5.18 C 50.781 5.18 51.757 6.1549997 51.757 8.941999 C 51.757 11.723 50.78 12.698 48.0 12.698 C 45.213 12.698 44.242 11.723 44.242 8.941999 C 44.243 6.154 45.213 5.18 48.0 5.18 z " fill-opacity="0.5" stroke-opacity="0.5"/>
<path d="M 48.0 4.242 C 50.781 4.242 51.757 5.215 51.757 8.0 C 51.757 10.785 50.781 11.758 48.0 11.758 C 45.213 11.758 44.242 10.785001 44.242 8.0 C 44.242 5.214999 45.213 4.242 48.0 4.242 z " fill="#dbd2bf"/>
</g>
<rect fill="none" height="10" width="10" x="43" y="3"/>
</g>
</g>
</g>
</svg>
