<?xml version="1.0" encoding="UTF-8"?>
<svg xmlns="http://www.w3.org/2000/svg" xmlns:xlink="http://www.w3.org/1999/xlink" baseProfile="tiny" contentScriptType="text/ecmascript" contentStyleType="text/css" height="16px" preserveAspectRatio="xMidYMid meet" version="1.1" viewBox="0 0 96 16" width="96px" x="0px" y="0px" zoomAndPan="magnify">
<g>
<rect fill="none" height="16" width="96"/>
<g>
<g fill-opacity="0.7" stroke-opacity="0.7">
<g>
<circle cx="55.4" cy="8.744" fill="#ffffff" fill-opacity="0.4" r="2.982" stroke-opacity="0.4"/>
<circle cx="55.4" cy="7.256" fill-opacity="0.9" r="2.982" stroke-opacity="0.9"/>
</g>
<rect fill="none" height="10" width="10" x="50.4" y="3"/>
</g>
<g fill-opacity="0.7" stroke-opacity="0.7">
<g>
<path d="M 40.6 12.698 C 37.305 12.698 35.900997 11.294 35.900997 8.000999 C 35.900997 4.7059994 37.304996 3.3029995 40.6 3.3029995 C 43.893 3.3029995 45.299 4.7059994 45.299 8.000999 C 45.299 11.294 43.893 12.698 40.6 12.698 z " fill-opacity="0.1" stroke-opacity="0.1"/>
<path d="M 40.6 5.181 C 43.380997 5.181 44.358 6.156 44.358 8.942 C 44.358 11.724001 43.380997 12.699 40.6 12.699 C 37.813 12.699 36.842 11.724 36.842 8.942 C 36.842 6.155 37.813 5.181 40.6 5.181 z " fill-opacity="0.5" stroke-opacity="0.5"/>
<path d="M 40.6 4.242 C 43.380997 4.242 44.358 5.216 44.358 8.001 C 44.358 10.785 43.380997 11.759001 40.6 11.759001 C 37.813 11.759001 36.842 10.785001 36.842 8.001001 C 36.842 5.216 37.813 4.242 40.6 4.242 z " fill="#dbd2bf"/>
</g>
<rect fill="none" height="10" width="10" x="35.6" y="3"/>
</g>
</g>
</g>
</svg>
