<?xml version="1.0" encoding="UTF-8"?>
<svg xmlns="http://www.w3.org/2000/svg" xmlns:xlink="http://www.w3.org/1999/xlink" baseProfile="tiny" contentScriptType="text/ecmascript" contentStyleType="text/css" height="20px" preserveAspectRatio="xMidYMid meet" version="1.1" viewBox="0 0 306 20" width="306px" x="0px" y="0px" zoomAndPan="magnify">
<g>
<g>
<path d="M 5.691 15.313 C 1.1100001 15.313 0.49300003 12.625 0.49300003 9.995 C 0.49300003 7.372 1.11 4.69 5.691 4.69 L 300.31 4.69 C 304.88998 4.69 305.507 7.379 305.507 10.01 C 305.507 12.6310005 304.88998 15.313 300.31 15.313 L 5.691 15.313 z " fill="url(#SVGID_1_)" fill-opacity="0.3" stroke-opacity="0.3"/>
<path d="M 300.31 5.689 C 303.735 5.689 304.507 7.209 304.507 10.009001 C 304.507 12.794001 303.757 14.312 300.31 14.312 L 5.691 14.312 C 2.265 14.312 1.493 12.792 1.493 9.994 C 1.493 7.2070007 2.243 5.6890006 5.691 5.6890006 L 300.31 5.6890006 " fill="#e7e2d7"/>
<defs>
<linearGradient gradientUnits="userSpaceOnUse" id="SVGID_1_" x1="153.0002" x2="153.0002" xlink:actuate="onLoad" xlink:show="other" xlink:type="simple" y1="15.3125" y2="4.6899">
<stop offset="0" stop-color="#2e2e2e"/>
<stop offset="1" stop-color="#2e2e2e" stop-opacity="0"/>
</linearGradient>
</defs>
</g>
<rect fill="none" height="20" width="306" x="0"/>
<g fill-opacity="0.5" stroke-opacity="0.5">
<polygon fill="#2e2e2e" points="21.066,5.704 13.097,13.682 16.113,13.683 24.066,5.704   "/>
<polygon fill="#2e2e2e" points="10.89,5.704 2.922,13.682 5.937,13.683 13.89,5.704   "/>
<path d="M 1.853 7.556 L 3.336 6.0680003 C 2.594 6.378 2.129 6.878 1.853 7.556 z " fill="#2e2e2e"/>
<polygon fill="#2e2e2e" points="31.222,5.704 23.254,13.683 26.269,13.683 34.222,5.704   "/>
<polygon fill="#2e2e2e" points="41.377,5.704 33.408,13.683 36.424,13.683 44.377,5.704   "/>
<polygon fill="#2e2e2e" points="51.533,5.704 43.564,13.683 46.58,13.683 54.533,5.704   "/>
<polygon fill="#2e2e2e" points="61.688,5.704 53.719,13.683 56.735,13.683 64.688,5.704   "/>
<polygon fill="#2e2e2e" points="71.844,5.704 63.875,13.683 66.89,13.683 74.844,5.704   "/>
<polygon fill="#2e2e2e" points="82,5.703 74.031,13.683 77.047,13.683 85,5.703   "/>
<polygon fill="#2e2e2e" points="92.155,5.703 84.186,13.683 87.202,13.683 95.155,5.703   "/>
<polygon fill="#2e2e2e" points="102.31,5.703 94.342,13.683 97.357,13.683 105.31,5.703   "/>
<polygon fill="#2e2e2e" points="112.467,5.703 104.498,13.683 107.513,13.683 115.467,5.703   "/>
<polygon fill="#2e2e2e" points="122.621,5.704 114.652,13.683 117.668,13.683 125.621,5.704   "/>
<polygon fill="#2e2e2e" points="132.777,5.704 124.808,13.683 127.824,13.683 135.777,5.704   "/>
<polygon fill="#2e2e2e" points="142.932,5.704 134.964,13.683 137.979,13.683 145.932,5.704   "/>
<polygon fill="#2e2e2e" points="153.088,5.703 145.119,13.683 148.135,13.683 156.088,5.703   "/>
<polygon fill="#2e2e2e" points="163.244,5.704 155.275,13.683 158.291,13.683 166.244,5.704   "/>
<polygon fill="#2e2e2e" points="173.399,5.704 165.43,13.683 168.446,13.683 176.399,5.704   "/>
<polygon fill="#2e2e2e" points="183.554,5.703 175.586,13.683 178.601,13.683 186.554,5.703   "/>
<polygon fill="#2e2e2e" points="193.711,5.703 185.742,13.683 188.758,13.683 196.711,5.703   "/>
<polygon fill="#2e2e2e" points="203.866,5.704 195.897,13.683 198.913,13.683 206.866,5.704   "/>
<polygon fill="#2e2e2e" points="214.021,5.703 206.052,13.683 209.068,13.683 217.021,5.703   "/>
<polygon fill="#2e2e2e" points="224.177,5.704 216.209,13.683 219.224,13.683 227.177,5.704   "/>
<polygon fill="#2e2e2e" points="234.332,5.703 226.363,13.683 229.379,13.683 237.332,5.703   "/>
<polygon fill="#2e2e2e" points="244.488,5.703 236.519,13.683 239.535,13.683 247.488,5.703   "/>
<polygon fill="#2e2e2e" points="254.643,5.703 246.675,13.683 249.69,13.683 257.643,5.703   "/>
<polygon fill="#2e2e2e" points="264.799,5.703 256.83,13.683 259.845,13.683 267.799,5.703   "/>
<polygon fill="#2e2e2e" points="274.955,5.703 266.986,13.683 270.002,13.683 277.955,5.703   "/>
<polygon fill="#2e2e2e" points="285.11,5.703 277.141,13.683 280.157,13.683 288.11,5.703   "/>
<polygon fill="#2e2e2e" points="295.265,5.703 287.297,13.683 290.312,13.683 298.265,5.703   "/>
<path d="M 300.469 13.683 L 304.501 9.638 C 304.474 8.629999 304.32202 7.806 303.953 7.174999 L 297.453 13.682999 L 300.469 13.682999 z " fill="#2e2e2e"/>
</g>
<g>
<path d="M 5.689 7.379 L 300.134 7.379 C 303.21802 7.379 304.146 8.619 304.3 10.906 C 304.31998 10.648 304.33298 10.386 304.33298 10.101 C 304.33298 7.3 303.56097 5.7809997 300.13397 5.7809997 L 5.689 5.7809997 C 2.242 5.7809997 1.493 7.299 1.493 10.086 C 1.493 10.365 1.5070001 10.622999 1.524 10.877 C 1.68 8.609 2.594 7.379 5.689 7.379 z " fill="#191919" fill-opacity="0.1" stroke-opacity="0.1"/>
<path d="M 5.689 6.58 L 300.134 6.58 C 303.388 6.58 304.239 7.967 304.318 10.504 C 304.32098 10.369 304.33398 10.244 304.33398 10.101999 C 304.33398 7.300999 303.56198 5.781999 300.13498 5.781999 L 5.689 5.781999 C 2.242 5.781999 1.493 7.299999 1.493 10.086999 C 1.493 10.227999 1.5040001 10.348999 1.5090001 10.482999 C 1.588 7.961 2.42 6.58 5.689 6.58 z " fill="#6f6f6e"/>
</g>
</g>
</svg>
