<?xml version="1.0" encoding="UTF-8"?>
<svg xmlns="http://www.w3.org/2000/svg" xmlns:xlink="http://www.w3.org/1999/xlink" baseProfile="tiny" contentScriptType="text/ecmascript" contentStyleType="text/css" height="16px" preserveAspectRatio="xMidYMid meet" version="1.1" viewBox="0 0 96 16" width="96px" x="0px" y="0px" zoomAndPan="magnify">
<g>
<g>
<g fill-opacity="0.7" stroke-opacity="0.7">
<g>
<circle cx="40.6" cy="8.744" fill="#ffffff" fill-opacity="0.4" r="2.982" stroke-opacity="0.4"/>
<circle cx="40.6" cy="7.256" fill-opacity="0.9" r="2.982" stroke-opacity="0.9"/>
</g>
<rect fill="none" height="10" width="10" x="35.6" y="3"/>
</g>
<g fill-opacity="0.7" stroke-opacity="0.7">
<g>
<circle cx="55.4" cy="8.744" fill="#ffffff" fill-opacity="0.4" r="2.982" stroke-opacity="0.4"/>
<circle cx="55.4" cy="7.256" fill-opacity="0.9" r="2.982" stroke-opacity="0.9"/>
</g>
<rect fill="none" height="10" width="10" x="50.4" y="3"/>
</g>
<g fill-opacity="0.7" stroke-opacity="0.7">
<g>
<circle cx="25.799" cy="8.744" fill="#ffffff" fill-opacity="0.4" r="2.982" stroke-opacity="0.4"/>
<circle cx="25.799" cy="7.256" fill-opacity="0.9" r="2.982" stroke-opacity="0.9"/>
</g>
<rect fill="none" height="10" width="10" x="20.799" y="3"/>
</g>
<g fill-opacity="0.7" stroke-opacity="0.7">
<g>
<path d="M 70.201 12.698 C 66.906 12.698 65.502 11.294 65.502 8.000999 C 65.502 4.7059994 66.906 3.3029995 70.201 3.3029995 C 73.494 3.3029995 74.899994 4.7059994 74.899994 8.000999 C 74.9 11.294 73.494 12.698 70.201 12.698 z " fill-opacity="0.1" stroke-opacity="0.1"/>
<path d="M 70.201 5.181 C 72.982 5.181 73.959 6.156 73.959 8.942 C 73.959 11.724001 72.982 12.699 70.201 12.699 C 67.413994 12.699 66.44299 11.724 66.44299 8.942 C 66.443 6.155 67.414 5.181 70.201 5.181 z " fill-opacity="0.5" stroke-opacity="0.5"/>
<path d="M 70.201 4.242 C 72.982 4.242 73.959 5.216 73.959 8.001 C 73.959 10.785 72.982 11.759001 70.201 11.759001 C 67.413994 11.759001 66.44299 10.785001 66.44299 8.001001 C 66.443 5.216 67.414 4.242 70.201 4.242 z " fill="#b3c445"/>
</g>
<rect fill="none" height="10" width="10" x="65.201" y="3"/>
</g>
</g>
<rect fill="none" height="16" width="96"/>
</g>
</svg>
