<?xml version="1.0" encoding="UTF-8"?>
<svg xmlns="http://www.w3.org/2000/svg" xmlns:xlink="http://www.w3.org/1999/xlink" baseProfile="tiny" contentScriptType="text/ecmascript" contentStyleType="text/css" height="20px" preserveAspectRatio="xMidYMid meet" version="1.1" viewBox="0 0 306 20" width="306px" x="0px" y="0px" zoomAndPan="magnify">
<g>
<g>
<path d="M 5.691 15.313 C 1.1100001 15.313 0.49300003 12.625 0.49300003 9.995 C 0.49300003 7.372 1.11 4.69 5.691 4.69 L 300.31 4.69 C 304.88998 4.69 305.507 7.379 305.507 10.01 C 305.507 12.6310005 304.88998 15.313 300.31 15.313 L 5.691 15.313 z " fill="url(#SVGID_1_)" fill-opacity="0.3" stroke-opacity="0.3"/>
<path d="M 300.31 5.689 C 303.735 5.689 304.507 7.209 304.507 10.009001 C 304.507 12.794001 303.757 14.312 300.31 14.312 L 5.691 14.312 C 2.265 14.312 1.493 12.792 1.493 9.994 C 1.493 7.2070007 2.243 5.6890006 5.691 5.6890006 L 300.31 5.6890006 " fill="#b3c445"/>
<defs>
<linearGradient gradientUnits="userSpaceOnUse" id="SVGID_1_" x1="153.0002" x2="153.0002" xlink:actuate="onLoad" xlink:show="other" xlink:type="simple" y1="15.3125" y2="4.6899">
<stop offset="0" stop-color="#0e0e0e"/>
<stop offset="1" stop-color="#0e0e0e" stop-opacity="0"/>
</linearGradient>
</defs>
</g>
<rect fill="none" height="20" width="306" x="0"/>
<g fill-opacity="0.5" stroke-opacity="0.5">
<polygon fill="#0e0e0e" points="12.066,5.704 4.097,13.682 7.113,13.683 15.066,5.704   "/>
<path d="M 1.528 9.078 L 4.868 5.726 C 2.474 5.934 1.687 7.091 1.528 9.078 z " fill="#0e0e0e"/>
<polygon fill="#0e0e0e" points="22.222,5.704 14.254,13.683 17.269,13.683 25.222,5.704   "/>
<polygon fill="#0e0e0e" points="32.377,5.704 24.408,13.683 27.424,13.683 35.377,5.704   "/>
<polygon fill="#0e0e0e" points="42.533,5.704 34.564,13.683 37.58,13.683 45.533,5.704   "/>
<polygon fill="#0e0e0e" points="52.688,5.704 44.719,13.683 47.735,13.683 55.688,5.704   "/>
<polygon fill="#0e0e0e" points="62.844,5.704 54.875,13.683 57.89,13.683 65.844,5.704   "/>
<polygon fill="#0e0e0e" points="73,5.703 65.031,13.683 68.047,13.683 76,5.703   "/>
<polygon fill="#0e0e0e" points="83.155,5.703 75.186,13.683 78.202,13.683 86.155,5.703   "/>
<polygon fill="#0e0e0e" points="93.31,5.703 85.342,13.683 88.357,13.683 96.31,5.703   "/>
<polygon fill="#0e0e0e" points="103.467,5.703 95.498,13.683 98.513,13.683 106.467,5.703   "/>
<polygon fill="#0e0e0e" points="113.621,5.704 105.652,13.683 108.668,13.683 116.621,5.704   "/>
<polygon fill="#0e0e0e" points="123.777,5.704 115.808,13.683 118.824,13.683 126.777,5.704   "/>
<polygon fill="#0e0e0e" points="133.932,5.704 125.964,13.683 128.979,13.683 136.932,5.704   "/>
<polygon fill="#0e0e0e" points="144.088,5.703 136.119,13.683 139.135,13.683 147.088,5.703   "/>
<polygon fill="#0e0e0e" points="154.244,5.704 146.275,13.683 149.291,13.683 157.244,5.704   "/>
<polygon fill="#0e0e0e" points="164.399,5.704 156.43,13.683 159.446,13.683 167.399,5.704   "/>
<polygon fill="#0e0e0e" points="174.554,5.703 166.586,13.683 169.601,13.683 177.554,5.703   "/>
<polygon fill="#0e0e0e" points="184.711,5.703 176.742,13.683 179.758,13.683 187.711,5.703   "/>
<polygon fill="#0e0e0e" points="194.866,5.704 186.897,13.683 189.913,13.683 197.866,5.704   "/>
<polygon fill="#0e0e0e" points="205.021,5.703 197.052,13.683 200.068,13.683 208.021,5.703   "/>
<polygon fill="#0e0e0e" points="215.177,5.704 207.209,13.683 210.224,13.683 218.177,5.704   "/>
<polygon fill="#0e0e0e" points="225.332,5.703 217.363,13.683 220.379,13.683 228.332,5.703   "/>
<polygon fill="#0e0e0e" points="235.488,5.703 227.519,13.683 230.535,13.683 238.488,5.703   "/>
<polygon fill="#0e0e0e" points="245.643,5.703 237.675,13.683 240.69,13.683 248.643,5.703   "/>
<polygon fill="#0e0e0e" points="255.799,5.703 247.83,13.683 250.845,13.683 258.799,5.703   "/>
<polygon fill="#0e0e0e" points="265.955,5.703 257.986,13.683 261.002,13.683 268.955,5.703   "/>
<polygon fill="#0e0e0e" points="276.11,5.703 268.141,13.683 271.157,13.683 279.11,5.703   "/>
<polygon fill="#0e0e0e" points="286.265,5.703 278.297,13.683 281.312,13.683 289.265,5.703   "/>
<polygon fill="#0e0e0e" points="296.422,5.704 288.453,13.683 291.469,13.683 299.422,5.704   "/>
<path d="M 301.623 13.683 L 304.47897 10.816999 C 304.49698 10.559999 304.507 10.294 304.507 10.009999 C 304.507 9.238999 304.444 8.566999 304.287 7.994 L 298.606 13.681999 L 301.623 13.681999 z " fill="#0e0e0e"/>
</g>
<g>
<path d="M 5.689 7.379 L 300.134 7.379 C 303.21802 7.379 304.146 8.619 304.3 10.906 C 304.31998 10.648 304.33298 10.386 304.33298 10.101 C 304.33298 7.3 303.56097 5.7809997 300.13397 5.7809997 L 5.689 5.7809997 C 2.242 5.7809997 1.493 7.299 1.493 10.086 C 1.493 10.365 1.5070001 10.622999 1.524 10.877 C 1.68 8.609 2.594 7.379 5.689 7.379 z " fill="#191919" fill-opacity="0.1" stroke-opacity="0.1"/>
<path d="M 5.689 6.58 L 300.134 6.58 C 303.388 6.58 304.239 7.967 304.318 10.504 C 304.32098 10.369 304.33398 10.244 304.33398 10.101999 C 304.33398 7.300999 303.56198 5.781999 300.13498 5.781999 L 5.689 5.781999 C 2.242 5.781999 1.493 7.299999 1.493 10.086999 C 1.493 10.227999 1.5040001 10.348999 1.5090001 10.482999 C 1.588 7.961 2.42 6.58 5.689 6.58 z " fill="#6f6f6e"/>
</g>
</g>
</svg>
