<?xml version="1.0" encoding="UTF-8"?>
<svg xmlns="http://www.w3.org/2000/svg" xmlns:xlink="http://www.w3.org/1999/xlink" baseProfile="tiny" contentScriptType="text/ecmascript" contentStyleType="text/css" height="96px" preserveAspectRatio="xMidYMid meet" version="1.1" viewBox="0 0 96 96" width="96px" x="0px" y="0px" zoomAndPan="magnify">
<linearGradient gradientTransform="matrix(1 0 0 -1 123.4448 270.2754)" gradientUnits="userSpaceOnUse" id="SVGID_1_" x1="-76.4448" x2="-76.4448" y1="262.2305" y2="181.5353">
<stop offset="0" stop-color="#a0b1bf"/>
<stop offset="1" stop-color="#3d465b"/>
</linearGradient>
<path d="M 87.0 47.5 C 87.0 77.132996 76.638 87.5 47.0 87.5 C 17.365 87.5 7.0 77.133 7.0 47.5 C 7.0 17.865 17.365 7.5 47.0 7.5 C 76.638 7.5 87.0 17.865 87.0 47.5 z " fill="url(#SVGID_1_)"/>
<linearGradient gradientTransform="matrix(1 0 0 -1 123.4448 270.2754)" gradientUnits="userSpaceOnUse" id="SVGID_2_" x1="-76.4448" x2="-76.4448" y1="262.2305" y2="181.5353">
<stop offset="0" stop-color="#ffffff"/>
<stop offset="1" stop-color="#ffffff" stop-opacity="0"/>
</linearGradient>
<path d="M 47.0 7.5 C 17.365 7.5 7.0 17.865 7.0 47.5 C 7.0 77.132996 17.365 87.5 47.0 87.5 C 76.638 87.5 87.0 77.133 87.0 47.5 C 87.0 17.865 76.638 7.5 47.0 7.5 z M 47.0 86.5 C 17.842 86.5 8.0 76.658 8.0 47.5 C 8.0 18.341 17.842 8.5 47.0 8.5 C 76.16 8.5 86.0 18.341 86.0 47.5 C 86.0 76.658 76.16 86.5 47.0 86.5 z " fill="url(#SVGID_2_)" fill-opacity="0.25"/>
<path d="M 44.244 78.577 C 43.144 78.577 37.508 78.361 34.586 74.101006 C 32.587997 71.19501 32.447 67.453 34.166 62.980003 L 40.215 45.250004 C 39.629 45.577003 38.961 45.757004 38.273 45.757004 C 37.994 45.757004 37.712997 45.728004 37.447 45.671005 L 35.657997 45.304005 C 34.589996 45.087006 33.642 44.430004 33.063995 43.500004 C 32.483994 42.564003 32.311996 41.422005 32.589996 40.365005 C 32.673996 40.053005 34.620995 33.114006 43.665997 32.368004 C 42.592 30.801 42.0 28.93 42.0 27.002 C 42.0 21.763 46.263 17.5 51.5 17.5 C 56.738 17.5 61.0 21.763 61.0 27.001999 C 61.0 31.206999 58.291 34.799 54.443 36.042 C 54.644 36.278 54.834 36.523 55.006 36.779 C 57.004 39.688 57.146 43.43 55.426 47.901 L 49.378 65.63 C 49.963997 65.305 50.632 65.124 51.322998 65.124 C 51.591 65.124 51.857998 65.15 52.121998 65.204 L 53.941998 65.579 C 55.013996 65.798004 55.96 66.459 56.538 67.391 C 57.114 68.323 57.286 69.462 57.004997 70.52 C 56.916996 70.85 54.748997 78.578995 44.315 78.578995 L 44.244 78.577 z " fill-opacity="0.02"/>
<path d="M 44.244 77.577 C 43.232 77.577 38.049 77.382 35.41 73.537 C 33.609 70.916 33.506 67.484 35.099 63.340004 L 41.37 44.962006 C 41.786 43.837006 41.925 42.759007 41.917 42.176006 C 41.899 42.177006 41.864 42.182007 41.864 42.182007 C 41.878 42.182007 41.406998 42.322006 40.871998 43.254005 C 40.335 44.183006 39.338997 44.759007 38.269997 44.759007 C 38.060997 44.759007 37.853996 44.738007 37.652996 44.695007 L 35.855995 44.327007 C 35.052994 44.16401 34.342995 43.67101 33.908997 42.974007 C 33.475 42.273006 33.345997 41.417007 33.554996 40.623005 C 33.633995 40.325005 35.595997 33.306004 45.275997 33.306004 C 45.421997 33.306004 45.603996 33.309002 45.812996 33.318005 C 44.088 31.76 43.0 29.505 43.0 27.002 C 43.0 22.314001 46.814 18.5 51.5 18.5 C 56.188 18.5 60.0 22.314 60.0 27.001999 C 60.0 31.394999 56.652 35.021 52.373 35.46 C 53.041 35.961998 53.66 36.582 54.185 37.344997 C 55.986 39.965996 56.088 43.396996 54.496002 47.541996 L 48.226 65.92 C 47.808002 67.046 47.668003 68.125 47.679 68.708 C 47.695 68.706 47.728 68.702 47.728 68.702 C 47.715 68.702 48.187 68.564 48.724 67.628006 C 49.256 66.699005 50.253998 66.12301 51.326 66.12301 C 51.523 66.12301 51.724 66.143005 51.926 66.184006 L 53.744 66.559006 C 54.549 66.72301 55.258 67.217 55.690998 67.91501 C 56.122997 68.61301 56.252 69.46901 56.040997 70.26201 C 55.962997 70.56101 54.001995 77.57601 44.315994 77.57601 L 44.244 77.577 z " fill-opacity="0.05"/>
<path d="M 44.244 76.577 C 43.32 76.577 38.59 76.402 36.234 72.971 C 34.631 70.639 34.564003 67.520004 36.033 63.7 L 42.316 45.286003 C 42.902 43.708004 43.095 41.814003 42.728 41.286003 C 42.648 41.170002 42.281002 41.161003 42.168 41.161003 C 42.037 41.161003 41.896 41.171 41.742 41.190002 C 41.679 41.197002 40.832 41.316 40.004 42.756004 C 39.648003 43.375004 38.983 43.759003 38.271 43.759003 C 38.131 43.759003 37.996 43.745003 37.863 43.717003 L 36.056 43.347004 C 35.523 43.239002 35.047 42.910004 34.758 42.445004 C 34.467 41.977005 34.383 41.407005 34.523 40.879005 C 34.592 40.612007 36.353 34.307007 45.277 34.307007 C 46.597 34.307007 51.062 34.567005 53.359 37.913006 C 54.963 40.246006 55.029 43.366005 53.56 47.185005 L 47.277 65.59901 C 46.691 67.17901 46.5 69.074005 46.867 69.601006 C 46.947002 69.716 47.312 69.726006 47.422 69.726006 C 47.556 69.726006 47.697002 69.715004 47.851 69.699005 C 47.916 69.689 48.763 69.57201 49.59 68.130005 C 49.945 67.51201 50.611 67.12701 51.324 67.12701 C 51.457 67.12701 51.59 67.14101 51.724003 67.16801 L 53.539 67.54101 C 54.076 67.65001 54.549 67.98001 54.838 68.44501 C 55.125 68.91201 55.211002 69.48001 55.07 70.00801 C 55.0 70.27701 53.242 76.57801 44.312 76.57801 L 44.244 76.57801 z M 51.5 34.504 C 47.364998 34.504 44.0 31.139002 44.0 27.002003 C 44.0 22.865004 47.365 19.500004 51.5 19.500004 C 55.638 19.500004 59.0 22.865004 59.0 27.002003 C 59.0 31.139002 55.638 34.504 51.5 34.504 L 51.5 34.504 z " fill-opacity="0.05"/>
<path d="M 44.244 75.577 C 43.406 75.577 39.131 75.424 37.058 72.40401 C 35.654 70.35901 35.621 67.55 36.965 64.05601 L 43.263 45.605007 C 43.765 44.253006 44.277 41.761005 43.547 40.712006 C 43.383 40.474007 43.06 40.158005 42.168 40.158005 C 41.998 40.158005 41.815998 40.170006 41.621 40.194004 C 41.510998 40.204002 40.238 40.341003 39.137997 42.255005 C 38.954998 42.569004 38.622997 42.756004 38.270996 42.756004 C 38.204994 42.756004 38.137997 42.750004 38.071995 42.735004 L 36.257996 42.364006 C 35.987995 42.309006 35.753994 42.146008 35.608997 41.912006 C 35.462997 41.679005 35.420998 41.396008 35.491997 41.130005 C 35.554996 40.892006 37.114998 35.302006 45.278996 35.302006 C 45.280994 35.302006 45.282997 35.302006 45.284996 35.302006 C 46.202995 35.302006 50.466995 35.460007 52.536995 38.475006 C 53.940994 40.519005 53.973995 43.328007 52.628994 46.821007 L 46.333992 65.27301 C 45.82999 66.62601 45.317993 69.12001 46.046993 70.16901 C 46.212994 70.406006 46.534992 70.72301 47.423992 70.72301 C 47.596992 70.72301 47.777992 70.71001 47.97599 70.686005 C 48.08599 70.678 49.35899 70.54101 50.458992 68.62401 C 50.64199 68.311005 50.97599 68.12201 51.325993 68.12201 C 51.391994 68.12201 51.46099 68.12901 51.526993 68.14301 L 53.339993 68.516014 C 53.610992 68.57301 53.843994 68.735016 53.98799 68.96902 C 54.131992 69.20102 54.17599 69.485016 54.104992 69.749016 C 54.041992 69.986015 52.479992 75.57501 44.31399 75.57501 L 44.244 75.577 z M 51.5 33.504 C 47.916 33.504 45.0 30.587002 45.0 27.002003 C 45.0 23.417004 47.916 20.500004 51.5 20.500004 C 55.084 20.500004 58.0 23.417004 58.0 27.002003 C 58.0 30.587002 55.084 33.504 51.5 33.504 L 51.5 33.504 z " fill-opacity="0.1"/>
<path d="M 48.094 71.68 C 42.613003 72.356 45.385002 64.951004 45.385002 64.951004 L 51.695004 46.465004 C 55.705 36.039005 45.279003 36.305004 45.279003 36.305004 C 37.793003 36.305004 36.459003 41.387005 36.459003 41.387005 L 38.273003 41.758003 C 39.699 39.279003 41.502003 39.203003 41.502003 39.203003 C 46.984 38.529003 44.211002 45.930004 44.211002 45.930004 L 37.9 64.416 C 33.888 74.844 44.314003 74.576004 44.314003 74.576004 C 51.801003 74.576004 53.138004 69.496 53.138004 69.496 L 51.324005 69.123 C 49.896 71.605 48.094 71.68 48.094 71.68 z M 51.5 21.5 C 48.463 21.5 46.0 23.963 46.0 27.001999 C 46.0 30.039 48.463 32.503998 51.5 32.503998 C 54.539 32.503998 57.0 30.038998 57.0 27.001999 C 57.0 23.963 54.539 21.5 51.5 21.5 z " fill-opacity="0.1"/>
<rect fill="none" height="80" width="80" x="7" y="7.5"/>
<linearGradient gradientTransform="matrix(1 0 0 -1 123.4448 270.2754)" gradientUnits="userSpaceOnUse" id="SVGID_3_" x1="-76.7158" x2="-76.7158" y1="199.6494" y2="-98.3114">
<stop offset="0" stop-color="#f7f9ed"/>
<stop offset="0.3232" stop-color="#f7f9ed"/>
<stop offset="1" stop-color="#d1cbc4"/>
</linearGradient>
<path d="M 48.094 68.883 C 42.613003 69.559006 45.385002 62.154003 45.385002 62.154003 L 51.695004 43.668003 C 55.705 33.242004 45.279003 33.508003 45.279003 33.508003 C 37.793003 33.508003 36.459003 38.590004 36.459003 38.590004 L 38.273003 38.961002 C 39.699 36.482002 41.502003 36.406002 41.502003 36.406002 C 46.984 35.732002 44.211002 43.133003 44.211002 43.133003 L 37.9 61.619 C 33.888 72.047 44.314003 71.779 44.314003 71.779 C 51.801003 71.779 53.138004 66.699 53.138004 66.699 L 51.324005 66.326 C 49.896 68.809 48.094 68.883 48.094 68.883 z M 51.5 18.703 C 48.463 18.703 46.0 21.165998 46.0 24.204998 C 46.0 27.241999 48.463 29.706997 51.5 29.706997 C 54.539 29.706997 57.0 27.241997 57.0 24.204998 C 57.0 21.166 54.539 18.703 51.5 18.703 z " fill="url(#SVGID_3_)"/>
<path d="M 51.324 66.326 C 49.896 68.808 48.094 68.882996 48.094 68.882996 C 45.615 69.187996 44.83 67.84 44.709003 66.273994 C 44.572002 68.20699 45.097004 70.25299 48.094 69.882996 C 48.094 69.882996 49.898003 69.809 51.324 67.326 L 52.744 67.617 C 53.035 67.076 53.14 66.699 53.14 66.699 L 51.324 66.326 z " fill="#ffffff"/>
<path d="M 45.277 33.508 C 37.791 33.508 36.457 38.59 36.457 38.59 L 36.853 38.670002 C 37.635002 37.207 39.818 34.508003 45.279 34.508003 C 45.279 34.508003 52.168 34.332005 52.592 39.865 C 52.959 33.318 45.277 33.508 45.277 33.508 z M 51.5 18.703 C 48.463 18.703 46.0 21.165998 46.0 24.204998 C 46.0 24.374998 46.01 24.540998 46.025 24.704998 C 46.279003 21.899998 48.629 19.703 51.5 19.703 C 54.371 19.703 56.724 21.9 56.975998 24.704998 C 56.991997 24.540998 56.999996 24.374998 56.999996 24.204998 C 57.0 21.166 54.539 18.703 51.5 18.703 z " fill="#ffffff"/>
<rect fill="none" height="36.691" width="36.691" x="52.286" y="51.809"/>
<linearGradient gradientTransform="matrix(1 0 0 -1 123.4448 270.2754)" gradientUnits="userSpaceOnUse" id="SVGID_4_" x1="-52.7915" x2="-52.7915" y1="216.5" y2="191.2771">
<stop offset="0" stop-color="#00a8cc"/>
<stop offset="1" stop-color="#005896"/>
</linearGradient>
<path d="M 88.999 70.154 C 88.999 83.744995 84.246 88.5 70.654 88.5 C 57.060997 88.5 52.307 83.745 52.307 70.154 C 52.307 56.562 57.061 51.808 70.654 51.808 C 84.246 51.809 88.999 56.563 88.999 70.154 z " fill="url(#SVGID_4_)"/>
<linearGradient gradientTransform="matrix(1 0 0 -1 123.4448 270.2754)" gradientUnits="userSpaceOnUse" id="SVGID_5_" x1="-52.8125" x2="-52.8125" y1="218.3506" y2="182.0056">
<stop offset="0" stop-color="#ffffff"/>
<stop offset="1" stop-color="#ffffff" stop-opacity="0"/>
</linearGradient>
<path d="M 70.632 51.809 C 57.040005 51.809 52.286003 56.563 52.286003 70.155 C 52.286003 83.746994 57.040005 88.502 70.632 88.502 C 84.227005 88.502 88.979004 83.747 88.979004 70.155 C 88.979004 56.562996 84.227 51.809 70.632 51.809 z M 70.632 88.041 C 57.259003 88.041 52.745003 83.527 52.745003 70.154 C 52.745003 56.781 57.259003 52.265 70.632 52.265 C 84.005005 52.265 88.52 56.781 88.52 70.154 C 88.52 83.527 84.005 88.041 70.632 88.041 z " fill="url(#SVGID_5_)" fill-opacity="0.25"/>
<path d="M 59.872 76.912 L 57.205 76.912 L 57.205 66.881 L 59.633003 66.881 L 59.734005 68.215 C 59.827003 68.043 59.956005 67.863 60.122005 67.67799 C 60.288006 67.493 60.491005 67.32099 60.729004 67.159996 C 60.966003 66.99999 61.247005 66.870995 61.565002 66.770996 C 61.882004 66.67 62.242 66.62299 62.639004 66.62299 C 63.911003 66.62299 64.82201 66.97099 65.366005 67.66799 C 65.91 68.36299 66.18201 69.32199 66.18201 70.54299 L 66.18201 76.911995 L 63.515007 76.911995 L 63.515007 70.702995 C 63.515007 70.01399 63.369007 69.54199 63.077007 69.288994 C 62.786007 69.036995 62.42801 68.910995 62.003006 68.910995 C 61.565006 68.910995 61.207005 68.99799 60.930008 69.17 C 60.65101 69.344 60.43601 69.582 60.284008 69.887 C 60.13101 70.192 60.02401 70.547005 59.966007 70.951004 C 59.905006 71.355 59.876007 71.784004 59.876007 72.234 L 59.876007 76.912 L 59.872 76.912 z " fill="#ffffff"/>
<path d="M 67.713 69.131 L 67.713 66.881 L 69.464 66.881 L 69.464 66.125 C 69.464 65.555 69.524994 65.004 69.645 64.475 C 69.764 63.944 69.967995 63.476997 70.259995 63.071 C 70.551994 62.668 70.948 62.343998 71.44599 62.106 C 71.94399 61.869 72.57699 61.749 73.34599 61.749 C 73.94299 61.749 74.43399 61.778 74.81899 61.839 C 75.203995 61.9 75.47499 61.948 75.633995 61.987 L 75.395 64.078 C 75.24899 64.051 75.063995 64.026 74.837 64.008 C 74.611 63.989002 74.34 63.980003 74.021996 63.980003 C 73.383995 63.980003 72.91499 64.142006 72.60999 64.466 C 72.30399 64.791 72.15199 65.371 72.15199 66.207 L 72.15199 66.883 L 74.79799 66.883 L 74.79799 69.133 L 72.15 69.133 L 72.15 76.914 L 69.462 76.914 L 69.462 69.133 L 67.713 69.131 L 67.713 69.131 z " fill="#ffffff"/>
<path d="M 78.618 71.896 C 78.618 72.93101 78.84 73.687004 79.284 74.165 C 79.729 74.643 80.368996 74.882 81.204994 74.882 C 81.76399 74.882 82.213 74.809006 82.55899 74.663 C 82.90498 74.517 83.16899 74.385 83.35599 74.266 L 84.37099 76.077995 C 84.25198 76.157 84.09299 76.259995 83.89299 76.385994 C 83.69299 76.51299 83.45199 76.634995 83.16499 76.75399 C 82.878 76.872986 82.551994 76.97799 82.18099 77.06399 C 81.80999 77.14999 81.398994 77.192986 80.94799 77.192986 C 79.288994 77.192986 78.038994 76.719986 77.19599 75.77099 C 76.35399 74.82199 75.93199 73.53099 75.93199 71.89999 C 75.93199 71.11699 76.04799 70.39999 76.28099 69.75198 C 76.510994 69.10198 76.843994 68.54398 77.27599 68.07999 C 77.70699 67.61499 78.230995 67.25799 78.84799 67.00499 C 79.46399 66.75299 80.15899 66.62699 80.926994 66.62699 C 81.41699 66.62699 81.868 66.68399 82.28099 66.79599 C 82.69199 66.90799 83.05099 67.03799 83.35599 67.18399 C 83.66099 67.329994 83.90599 67.47299 84.09099 67.61199 C 84.277985 67.75299 84.39699 67.84799 84.44799 67.90099 L 83.25499 69.732994 C 83.18999 69.69199 83.08899 69.62699 82.955986 69.534 C 82.82298 69.439995 82.664986 69.35 82.47799 69.264 C 82.29099 69.178 82.081985 69.102 81.85199 69.035 C 81.61999 68.969 81.37499 68.935005 81.12399 68.935005 C 80.36699 68.935005 79.76199 69.17901 79.30299 69.670006 C 78.848 70.158 78.618 70.9 78.618 71.896 z " fill="#ffffff"/>
<rect fill="none" height="96" width="96"/>
</svg>
