<?xml version="1.0" encoding="UTF-8"?>
<svg xmlns="http://www.w3.org/2000/svg" xmlns:xlink="http://www.w3.org/1999/xlink" baseProfile="tiny" contentScriptType="text/ecmascript" contentStyleType="text/css" height="42px" preserveAspectRatio="xMidYMid meet" version="1.1" viewBox="0 0 42 42" width="42px" x="0px" y="0px" zoomAndPan="magnify">
<path d="M 21.0 3.857 L 21.0 3.857 C 8.302 3.857 3.857 8.299 3.857 21.0 C 3.857 33.701 8.302 38.143 21.0 38.143 L 21.0 38.143 C 33.697998 38.143 38.142998 33.702003 38.142998 21.000002 C 38.142998 8.298 33.698 3.857 21.0 3.857 z " fill="#65c2d1"/>
<linearGradient gradientUnits="userSpaceOnUse" id="SVGID_1_" x1="20.9995" x2="20.9995" xlink:actuate="onLoad" xlink:show="other" xlink:type="simple" y1="4.1431" y2="38.7565">
<stop offset="0" stop-color="#ffffff"/>
<stop offset="0.1404" stop-color="#ffffff" stop-opacity="0.8596"/>
<stop offset="1" stop-color="#ffffff" stop-opacity="0"/>
</linearGradient>
<path d="M 21.0 3.857 L 21.0 3.857 C 8.302 3.857 3.857 8.299 3.857 21.0 C 3.857 33.701 8.302 38.143 21.0 38.143 L 21.0 38.143 C 33.697998 38.143 38.142998 33.702003 38.142998 21.000002 C 38.142998 8.298 33.698 3.857 21.0 3.857 z " fill="url(#SVGID_1_)" fill-opacity="0.3" stroke-opacity="0.3"/>
<linearGradient gradientUnits="userSpaceOnUse" id="SVGID_2_" x1="21.0005" x2="21.0005" xlink:actuate="onLoad" xlink:show="other" xlink:type="simple" y1="39" y2="3.0005">
<stop offset="0" stop-color="#ffffff"/>
<stop offset="1" stop-color="#ffffff" stop-opacity="0.5"/>
</linearGradient>
<path d="M 21.0 3.857 C 33.697998 3.857 38.142998 8.298 38.142998 21.0 C 38.142998 33.702 33.698 38.143 21.0 38.143 L 21.0 38.143 C 8.302 38.143 3.857 33.701 3.857 21.0 C 3.857 8.299 8.302 3.857 21.0 3.857 L 21.0 3.857 M 21.0 3.0 L 21.0 3.0 C 7.878 3.0 3.0 7.877 3.0 21.0 C 3.0 34.121002 7.878 39.0 21.0 39.0 L 21.0 39.0 C 34.121002 39.0 39.0 34.121 39.0 21.0 C 39.0 7.877 34.121 3.0 21.0 3.0 L 21.0 3.0 z " fill="url(#SVGID_2_)" fill-opacity="0.35" stroke-opacity="0.35"/>
<path d="M 21.0 3.857 C 8.302 3.857 3.857 8.299 3.857 21.0 C 3.857 33.701 8.302 38.143 21.0 38.143 C 33.697998 38.143 38.143 33.701 38.143 21.0 C 38.143 8.299 33.698 3.857 21.0 3.857 z M 21.0 35.57 C 9.833 35.57 6.429 32.166 6.429 21.0 C 6.429 9.832 9.833 6.428 21.0 6.428 C 32.168 6.428 35.571 9.832 35.571 21.0 C 35.571 32.166 32.168 35.57 21.0 35.57 z " fill="url(#SVGID_5_)" fill-opacity="0.05" stroke-opacity="0.05"/>
<path d="M 21.0 3.857 C 8.302 3.857 3.857 8.299 3.857 21.0 C 3.857 33.701 8.302 38.143 21.0 38.143 C 33.697998 38.143 38.143 33.701 38.143 21.0 C 38.143 8.299 33.698 3.857 21.0 3.857 z M 21.0 36.428 C 9.321 36.428 5.571 32.68 5.571 21.0 C 5.571 9.32 9.321 5.57 21.0 5.57 C 32.68 5.57 36.429 9.32 36.429 21.0 C 36.429 32.68 32.68 36.428 21.0 36.428 z " fill="url(#SVGID_5_)" fill-opacity="0.1" stroke-opacity="0.1"/>
<path d="M 21.0 3.857 C 8.302 3.857 3.857 8.299 3.857 21.0 C 3.857 33.701 8.302 38.143 21.0 38.143 C 33.697998 38.143 38.143 33.701 38.143 21.0 C 38.143 8.299 33.698 3.857 21.0 3.857 z M 21.0 37.285 C 8.824 37.285 4.714 33.176 4.714 21.0 C 4.714 8.824001 8.824 4.713 21.0 4.713 C 33.178 4.713 37.285 8.823999 37.285 21.0 C 37.285 33.176003 33.178 37.285 21.0 37.285 z " fill="url(#SVGID_5_)" fill-opacity="0.15" stroke-opacity="0.15"/>
<path d="M 21.0 15.369 C 15.528999 15.369 14.339001 17.74 14.339001 22.107 C 14.339001 26.48 15.564001 28.855 21.0 28.855 C 26.469 28.855 27.66 26.487999 27.66 22.123 C 27.66 17.75 26.438 15.369 21.0 15.369 z " fill-opacity="0.5" stroke-opacity="0.5"/>
<path d="M 21.0 14.0 C 15.528999 14.0 14.339001 16.375 14.339001 20.737999 C 14.339001 25.112999 15.564001 27.487999 21.0 27.487999 C 26.469 27.487999 27.66 25.120998 27.66 20.758 C 27.66 16.381 26.438 14.0 21.0 14.0 z " fill="#ffffff"/>
<linearGradient gradientUnits="userSpaceOnUse" id="SVGID_6_" x1="20.9995" x2="20.9995" xlink:actuate="onLoad" xlink:show="other" xlink:type="simple" y1="35.1162" y2="5.3217">
<stop offset="0" stop-color="#000000"/>
<stop offset="1" stop-color="#000000" stop-opacity="0"/>
</linearGradient>
<path d="M 21.0 14.988 C 15.528999 14.988 14.339001 17.361 14.339001 21.723999 C 14.339001 26.098999 15.564001 28.473999 21.0 28.473999 C 26.469 28.473999 27.66 26.106998 27.66 21.744 C 27.66 17.369 26.438 14.988 21.0 14.988 z " fill="url(#SVGID_6_)" fill-opacity="0.3" stroke-opacity="0.3"/>
<rect fill="none" height="42" width="42"/>
<defs>
<linearGradient gradientUnits="userSpaceOnUse" id="SVGID_5_" x1="20.9995" x2="20.9995" xlink:actuate="onLoad" xlink:show="other" xlink:type="simple" y1="4.5005" y2="37.2861">
<stop offset="0" stop-color="#000000"/>
<stop offset="1" stop-color="#000000" stop-opacity="0"/>
</linearGradient>
</defs>
</svg>
