<?xml version="1.0" encoding="UTF-8"?>
<svg xmlns="http://www.w3.org/2000/svg" xmlns:xlink="http://www.w3.org/1999/xlink" baseProfile="tiny" contentScriptType="text/ecmascript" contentStyleType="text/css" height="50px" preserveAspectRatio="xMidYMid meet" version="1.1" viewBox="0 0 25 50" width="25px" x="0px" y="0px" zoomAndPan="magnify">
<path d="M 21.0 5.0 C 6.047 5.0 1.0 10.047 1.0 25.0 C 1.0 39.953 6.047 45.0 21.0 45.0 L 25.0 45.0 L 25.0 5.0 L 21.0 5.0 z " fill="#e16400"/>
<linearGradient gradientUnits="userSpaceOnUse" id="SVGID_1_" x1="13" x2="13" xlink:actuate="onLoad" xlink:show="other" xlink:type="simple" y1="45" y2="5.1081">
<stop offset="0" stop-color="#ffffff"/>
<stop offset="1" stop-color="#ffffff" stop-opacity="0"/>
</linearGradient>
<path d="M 21.0 5.0 C 6.047 5.0 1.0 10.047 1.0 25.0 C 1.0 39.953 6.047 45.0 21.0 45.0 L 25.0 45.0 L 25.0 5.0 L 21.0 5.0 z " fill="url(#SVGID_1_)" fill-opacity="0.15" stroke-opacity="0.15"/>
<linearGradient gradientUnits="userSpaceOnUse" id="SVGID_2_" x1="13" x2="13" xlink:actuate="onLoad" xlink:show="other" xlink:type="simple" y1="45.2383" y2="5.474">
<stop offset="0" stop-color="#ffffff"/>
<stop offset="1" stop-color="#ffffff" stop-opacity="0"/>
</linearGradient>
<path d="M 21.0 44.0 C 6.617 44.0 2.0 39.383 2.0 25.0 C 2.0 10.617 6.617 6.0 21.0 6.0 L 25.0 6.0 L 25.0 5.0 L 21.0 5.0 C 6.047 5.0 1.0 10.047 1.0 25.0 C 1.0 39.953 6.047 45.0 21.0 45.0 L 25.0 45.0 L 25.0 44.0 L 21.0 44.0 z " fill="url(#SVGID_2_)" fill-opacity="0.1" stroke-opacity="0.1"/>
<linearGradient gradientUnits="userSpaceOnUse" id="SVGID_3_" x1="12.4995" x2="12.4995" xlink:actuate="onLoad" xlink:show="other" xlink:type="simple" y1="4" y2="46.0005">
<stop offset="0" stop-color="#000000"/>
<stop offset="0.0057" stop-color="#000000"/>
<stop offset="1" stop-color="#000000" stop-opacity="0"/>
</linearGradient>
<path d="M 21.0 45.0 C 6.047 45.0 1.0 39.953 1.0 25.0 C 1.0 10.047001 6.047 5.0 21.0 5.0 L 25.0 5.0 L 25.0 4.0 L 21.0 4.0 C 5.441 4.0 0.0 9.446 0.0 25.0 C 0.0 40.561 5.441 46.0 21.0 46.0 L 25.0 46.0 L 25.0 45.0 L 21.0 45.0 z " fill="url(#SVGID_3_)"/>
<rect fill="none" height="50" width="25"/>
</svg>
