<?xml version="1.0" encoding="UTF-8"?>
<svg xmlns="http://www.w3.org/2000/svg" xmlns:xlink="http://www.w3.org/1999/xlink" baseProfile="tiny" contentScriptType="text/ecmascript" contentStyleType="text/css" height="18px" preserveAspectRatio="xMidYMid meet" version="1.1" viewBox="0 0 100 18" width="100px" x="0px" y="0px" zoomAndPan="magnify">
<g>
<path d="M 0.0 4.0 C 0.0 7.289 0.0 10.711 0.0 14.0 L 100.0 14.0 C 100.0 10.666 100.0 7.334 100.0 4.0 L 0.0 4.0 z " fill-opacity="0.9"/>
<path d="M 0.0 4.0 C 0.0 7.289 0.0 10.711 0.0 14.0 L 100.0 14.0 C 100.0 10.666 100.0 7.334 100.0 4.0 L 0.0 4.0 z " fill="url(#SVGID_1_)" fill-opacity="0.25"/>
<path d="M 0.0 4.0 C 0.0 4.331 0.0 4.666 0.0 5.0 L 100.0 5.0 C 100.0 4.666 100.0 4.334 100.0 4.0 L 0.0 4.0 z " fill="#262626" fill-opacity="0.4"/>
<path d="M 0.0 13.0 C 0.0 13.334 0.0 13.669 0.0 14.0 L 100.0 14.0 C 100.0 13.666 100.0 13.334 100.0 13.0 L 0.0 13.0 z " fill="#b8b8b8" fill-opacity="0.05"/>
<defs>
<linearGradient gradientUnits="userSpaceOnUse" id="SVGID_1_" x1="50.0005" x2="50.0005" xlink:actuate="onLoad" xlink:show="other" xlink:type="simple" y1="14" y2="4.0005">
<stop offset="0" stop-color="#575757"/>
<stop offset="1" stop-color="#575757" stop-opacity="0"/>
</linearGradient>
</defs>
</g>
<rect fill="none" height="18" width="100"/>
</svg>
