<?xml version="1.0" encoding="UTF-8"?>
<svg xmlns="http://www.w3.org/2000/svg" xmlns:xlink="http://www.w3.org/1999/xlink" baseProfile="tiny" contentScriptType="text/ecmascript" contentStyleType="text/css" height="20px" preserveAspectRatio="xMidYMid meet" version="1.1" viewBox="0 0 306 20" width="306px" x="0px" y="0px" zoomAndPan="magnify">
<g>
<g>
<path d="M 5.691 15.501 C 1.1100001 15.501 0.49300003 12.813001 0.49300003 10.183001 C 0.49300003 7.560001 1.11 4.8780007 5.691 4.8780007 L 300.31 4.8780007 C 304.88998 4.8780007 305.507 7.567001 305.507 10.198001 C 305.507 12.819001 304.88998 15.501001 300.31 15.501001 L 5.691 15.501001 z " fill="url(#SVGID_1_)" fill-opacity="0.3" stroke-opacity="0.3"/>
<path d="M 300.31 5.878 C 303.735 5.878 304.507 7.398 304.507 10.198 C 304.507 12.983 303.757 14.500999 300.31 14.500999 L 5.691 14.500999 C 2.265 14.500999 1.493 12.980999 1.493 10.183 C 1.493 7.396 2.243 5.878 5.691 5.878 L 300.31 5.878 " fill="#e16400"/>
<defs>
<linearGradient gradientUnits="userSpaceOnUse" id="SVGID_1_" x1="153.0002" x2="153.0002" xlink:actuate="onLoad" xlink:show="other" xlink:type="simple" y1="15.501" y2="4.8784">
<stop offset="0" stop-color="#0e0e0e"/>
<stop offset="1" stop-color="#0e0e0e" stop-opacity="0"/>
</linearGradient>
</defs>
</g>
<rect fill="none" height="20" width="306" x="0" y="0.188"/>
<g fill-opacity="0.5" stroke-opacity="0.5">
<path d="M 5.181 5.893 C 2.1710002 6.0410004 1.4930003 7.54 1.4930003 10.183001 C 1.4930003 10.284 1.4960003 10.378 1.4980003 10.475 L 6.066 5.8930006 L 5.181 5.8930006 z " fill="#0e0e0e"/>
<polygon fill="#0e0e0e" points="13.222,5.893 5.254,13.871 8.269,13.871 16.222,5.893   "/>
<polygon fill="#0e0e0e" points="23.377,5.893 15.408,13.871 18.424,13.871 26.377,5.893   "/>
<polygon fill="#0e0e0e" points="33.533,5.893 25.564,13.871 28.58,13.871 36.533,5.893   "/>
<polygon fill="#0e0e0e" points="43.688,5.893 35.719,13.871 38.735,13.871 46.688,5.893   "/>
<polygon fill="#0e0e0e" points="53.844,5.893 45.875,13.871 48.89,13.871 56.844,5.893   "/>
<polygon fill="#0e0e0e" points="64,5.892 56.031,13.871 59.047,13.871 67,5.892   "/>
<polygon fill="#0e0e0e" points="74.155,5.892 66.186,13.871 69.202,13.871 77.155,5.892   "/>
<polygon fill="#0e0e0e" points="84.31,5.892 76.342,13.871 79.357,13.871 87.31,5.892   "/>
<polygon fill="#0e0e0e" points="94.467,5.892 86.498,13.871 89.513,13.871 97.467,5.892   "/>
<polygon fill="#0e0e0e" points="104.621,5.893 96.652,13.871 99.668,13.871 107.621,5.893   "/>
<polygon fill="#0e0e0e" points="114.777,5.893 106.808,13.871 109.824,13.871 117.777,5.893   "/>
<polygon fill="#0e0e0e" points="124.932,5.893 116.964,13.871 119.979,13.871 127.932,5.893   "/>
<polygon fill="#0e0e0e" points="135.088,5.892 127.119,13.871 130.135,13.871 138.088,5.892   "/>
<polygon fill="#0e0e0e" points="145.244,5.893 137.275,13.871 140.291,13.871 148.244,5.893   "/>
<polygon fill="#0e0e0e" points="155.399,5.893 147.43,13.871 150.446,13.871 158.399,5.893   "/>
<polygon fill="#0e0e0e" points="165.554,5.892 157.586,13.871 160.601,13.871 168.554,5.892   "/>
<polygon fill="#0e0e0e" points="175.711,5.892 167.742,13.871 170.758,13.871 178.711,5.892   "/>
<polygon fill="#0e0e0e" points="185.866,5.893 177.897,13.871 180.913,13.871 188.866,5.893   "/>
<polygon fill="#0e0e0e" points="196.021,5.892 188.052,13.871 191.068,13.871 199.021,5.892   "/>
<polygon fill="#0e0e0e" points="206.177,5.893 198.209,13.871 201.224,13.871 209.177,5.893   "/>
<polygon fill="#0e0e0e" points="216.332,5.892 208.363,13.871 211.379,13.871 219.332,5.892   "/>
<polygon fill="#0e0e0e" points="226.488,5.892 218.519,13.871 221.535,13.871 229.488,5.892   "/>
<polygon fill="#0e0e0e" points="236.643,5.892 228.675,13.871 231.69,13.871 239.643,5.892   "/>
<polygon fill="#0e0e0e" points="246.799,5.892 238.83,13.871 241.845,13.871 249.799,5.892   "/>
<polygon fill="#0e0e0e" points="256.955,5.892 248.986,13.871 252.002,13.871 259.955,5.892   "/>
<polygon fill="#0e0e0e" points="267.11,5.892 259.141,13.871 262.157,13.871 270.11,5.892   "/>
<polygon fill="#0e0e0e" points="277.265,5.892 269.297,13.871 272.312,13.871 280.265,5.892   "/>
<polygon fill="#0e0e0e" points="287.422,5.893 279.453,13.871 282.469,13.871 290.422,5.893   "/>
<polygon fill="#0e0e0e" points="297.576,5.893 289.607,13.871 292.623,13.871 300.576,5.893   "/>
<path d="M 302.779 13.871 L 304.23398 12.411 C 304.43497 11.8 304.507 11.059 304.507 10.198 C 304.507 9.831 304.49298 9.488 304.46198 9.165 L 299.76297 13.871 L 302.779 13.871 z " fill="#0e0e0e"/>
</g>
<g>
<path d="M 5.689 7.567 L 300.134 7.567 C 303.21802 7.567 304.146 8.807 304.3 11.094 C 304.31998 10.836 304.33298 10.573999 304.33298 10.289 C 304.33298 7.487999 303.56097 5.9689994 300.13397 5.9689994 L 5.689 5.9689994 C 2.242 5.9689994 1.493 7.487 1.493 10.273999 C 1.493 10.553 1.5070001 10.810999 1.524 11.065 C 1.68 8.798 2.594 7.567 5.689 7.567 z " fill="#191919" fill-opacity="0.1" stroke-opacity="0.1"/>
<path d="M 5.689 6.769 L 300.134 6.769 C 303.388 6.769 304.239 8.156 304.318 10.693 C 304.32098 10.558 304.33398 10.433 304.33398 10.290999 C 304.33398 7.4899993 303.56198 5.9709992 300.13498 5.9709992 L 5.689 5.9709992 C 2.242 5.9709992 1.493 7.4889994 1.493 10.275999 C 1.493 10.416999 1.5040001 10.537999 1.5090001 10.671999 C 1.588 8.149 2.42 6.769 5.689 6.769 z " fill="#6f6f6e"/>
</g>
</g>
</svg>
