<?xml version="1.0" encoding="UTF-8"?>
<svg xmlns="http://www.w3.org/2000/svg" xmlns:xlink="http://www.w3.org/1999/xlink" baseProfile="tiny" contentScriptType="text/ecmascript" contentStyleType="text/css" height="20px" preserveAspectRatio="xMidYMid meet" version="1.1" viewBox="0 0 306 20" width="306px" x="0px" y="0px" zoomAndPan="magnify">
<g>
<g>
<path d="M 5.691 15.313 C 1.1100001 15.313 0.49300003 12.625 0.49300003 9.995 C 0.49300003 7.372 1.11 4.69 5.691 4.69 L 300.31 4.69 C 304.88998 4.69 305.507 7.379 305.507 10.01 C 305.507 12.6310005 304.88998 15.313 300.31 15.313 L 5.691 15.313 z " fill="url(#SVGID_1_)" fill-opacity="0.3" stroke-opacity="0.3"/>
<path d="M 300.31 5.689 C 303.735 5.689 304.507 7.209 304.507 10.009001 C 304.507 12.794001 303.757 14.312 300.31 14.312 L 5.691 14.312 C 2.265 14.312 1.493 12.792 1.493 9.994 C 1.493 7.2070007 2.243 5.6890006 5.691 5.6890006 L 300.31 5.6890006 " fill="#b3c445"/>
<defs>
<linearGradient gradientUnits="userSpaceOnUse" id="SVGID_1_" x1="153.0002" x2="153.0002" xlink:actuate="onLoad" xlink:show="other" xlink:type="simple" y1="15.3125" y2="4.6899">
<stop offset="0" stop-color="#0e0e0e"/>
<stop offset="1" stop-color="#0e0e0e" stop-opacity="0"/>
</linearGradient>
</defs>
</g>
<rect fill="none" height="20" width="306" x="0"/>
<g fill-opacity="0.5" stroke-opacity="0.5">
<path d="M 6.066 5.704 L 1.4990001 10.277 C 1.5200001 11.2960005 1.661 12.132 2.019 12.774 L 9.066999 5.704 L 6.066 5.704 z " fill="#0e0e0e"/>
<polygon fill="#0e0e0e" points="16.222,5.704 8.254,13.683 11.269,13.683 19.222,5.704   "/>
<polygon fill="#0e0e0e" points="26.377,5.704 18.408,13.683 21.424,13.683 29.377,5.704   "/>
<polygon fill="#0e0e0e" points="36.533,5.704 28.564,13.683 31.58,13.683 39.533,5.704   "/>
<polygon fill="#0e0e0e" points="46.688,5.704 38.719,13.683 41.735,13.683 49.688,5.704   "/>
<polygon fill="#0e0e0e" points="56.844,5.704 48.875,13.683 51.89,13.683 59.844,5.704   "/>
<polygon fill="#0e0e0e" points="67,5.703 59.031,13.683 62.047,13.683 70,5.703   "/>
<polygon fill="#0e0e0e" points="77.155,5.703 69.186,13.683 72.202,13.683 80.155,5.703   "/>
<polygon fill="#0e0e0e" points="87.31,5.703 79.342,13.683 82.357,13.683 90.31,5.703   "/>
<polygon fill="#0e0e0e" points="97.467,5.703 89.498,13.683 92.513,13.683 100.467,5.703   "/>
<polygon fill="#0e0e0e" points="107.621,5.704 99.652,13.683 102.668,13.683 110.621,5.704   "/>
<polygon fill="#0e0e0e" points="117.777,5.704 109.808,13.683 112.824,13.683 120.777,5.704   "/>
<polygon fill="#0e0e0e" points="127.932,5.704 119.964,13.683 122.979,13.683 130.932,5.704   "/>
<polygon fill="#0e0e0e" points="138.088,5.703 130.119,13.683 133.135,13.683 141.088,5.703   "/>
<polygon fill="#0e0e0e" points="148.244,5.704 140.275,13.683 143.291,13.683 151.244,5.704   "/>
<polygon fill="#0e0e0e" points="158.399,5.704 150.43,13.683 153.446,13.683 161.399,5.704   "/>
<polygon fill="#0e0e0e" points="168.554,5.703 160.586,13.683 163.601,13.683 171.554,5.703   "/>
<polygon fill="#0e0e0e" points="178.711,5.703 170.742,13.683 173.758,13.683 181.711,5.703   "/>
<polygon fill="#0e0e0e" points="188.866,5.704 180.897,13.683 183.913,13.683 191.866,5.704   "/>
<polygon fill="#0e0e0e" points="199.021,5.703 191.052,13.683 194.068,13.683 202.021,5.703   "/>
<polygon fill="#0e0e0e" points="209.177,5.704 201.209,13.683 204.224,13.683 212.177,5.704   "/>
<polygon fill="#0e0e0e" points="219.332,5.703 211.363,13.683 214.379,13.683 222.332,5.703   "/>
<polygon fill="#0e0e0e" points="229.488,5.703 221.519,13.683 224.535,13.683 232.488,5.703   "/>
<polygon fill="#0e0e0e" points="239.643,5.703 231.675,13.683 234.69,13.683 242.643,5.703   "/>
<polygon fill="#0e0e0e" points="249.799,5.703 241.83,13.683 244.845,13.683 252.799,5.703   "/>
<polygon fill="#0e0e0e" points="259.955,5.703 251.986,13.683 255.002,13.683 262.955,5.703   "/>
<polygon fill="#0e0e0e" points="270.11,5.703 262.141,13.683 265.157,13.683 273.11,5.703   "/>
<polygon fill="#0e0e0e" points="280.265,5.703 272.297,13.683 275.312,13.683 283.265,5.703   "/>
<polygon fill="#0e0e0e" points="290.422,5.704 282.453,13.683 285.469,13.683 293.422,5.704   "/>
<path d="M 303.576 5.704 L 300.815 5.704 C 301.769 5.751 302.489 5.937 303.028 6.254 L 303.576 5.704 z " fill="#0e0e0e"/>
<path d="M 292.607 13.683 L 295.623 13.683 L 303.02798 6.2539997 C 302.48898 5.9379997 301.76898 5.7509995 300.81497 5.7039995 L 300.57596 5.7039995 L 292.607 13.683 z " fill="#0e0e0e"/>
<path d="M 304.239 12.205 L 302.763 13.683 L 303.157 13.683 C 303.696 13.332 304.034 12.836 304.239 12.205 z " fill="#0e0e0e"/>
</g>
<g>
<path d="M 5.689 7.379 L 300.134 7.379 C 303.21802 7.379 304.146 8.619 304.3 10.906 C 304.31998 10.648 304.33298 10.386 304.33298 10.101 C 304.33298 7.3 303.56097 5.7809997 300.13397 5.7809997 L 5.689 5.7809997 C 2.242 5.7809997 1.493 7.299 1.493 10.086 C 1.493 10.365 1.5070001 10.622999 1.524 10.877 C 1.68 8.609 2.594 7.379 5.689 7.379 z " fill="#191919" fill-opacity="0.1" stroke-opacity="0.1"/>
<path d="M 5.689 6.58 L 300.134 6.58 C 303.388 6.58 304.239 7.967 304.318 10.504 C 304.32098 10.369 304.33398 10.244 304.33398 10.101999 C 304.33398 7.300999 303.56198 5.781999 300.13498 5.781999 L 5.689 5.781999 C 2.242 5.781999 1.493 7.299999 1.493 10.086999 C 1.493 10.227999 1.5040001 10.348999 1.5090001 10.482999 C 1.588 7.961 2.42 6.58 5.689 6.58 z " fill="#6f6f6e"/>
</g>
</g>
</svg>
