<?xml version="1.0" encoding="UTF-8"?>
<svg xmlns="http://www.w3.org/2000/svg" xmlns:xlink="http://www.w3.org/1999/xlink" baseProfile="tiny" contentScriptType="text/ecmascript" contentStyleType="text/css" height="95px" preserveAspectRatio="xMidYMid meet" version="1.1" viewBox="0 0 95 95" width="95px" x="0px" y="0px" zoomAndPan="magnify">
<linearGradient gradientTransform="matrix(1 0 0 -1 -126 19)" gradientUnits="userSpaceOnUse" id="SVGID_1_" x1="173.5" x2="173.5" xlink:actuate="onLoad" xlink:show="other" xlink:type="simple" y1="19" y2="-76">
<stop offset="0" stop-color="#0a0a0a"/>
<stop offset="1" stop-color="#0a0a0a"/>
</linearGradient>
<rect fill="url(#SVGID_1_)" height="95" width="95"/>
<linearGradient gradientTransform="matrix(1 0 0 -1 -126 19)" gradientUnits="userSpaceOnUse" id="SVGID_2_" x1="173.5" x2="173.5" xlink:actuate="onLoad" xlink:show="other" xlink:type="simple" y1="19" y2="-76">
<stop offset="0" stop-color="#ffffff"/>
<stop offset="1" stop-color="#ffffff" stop-opacity="0.5"/>
</linearGradient>
<path d="M 0.0 0.0 L 0.0 95.0 L 95.0 95.0 L 95.0 0.0 L 0.0 0.0 z M 94.62 94.62 L 0.38 94.62 L 0.38 0.38 L 94.619995 0.38 L 94.619995 94.62 z " fill="url(#SVGID_2_)" fill-opacity="0.2"/>
<linearGradient gradientTransform="matrix(1 0 0 -1 -126 19)" gradientUnits="userSpaceOnUse" id="SVGID_3_" x1="149.8447" x2="192.8799" xlink:actuate="onLoad" xlink:show="other" xlink:type="simple" y1="-29.2603" y2="-29.2603">
<stop offset="0" stop-color="#ffffff" stop-opacity="0.5"/>
<stop offset="0.5" stop-color="#ffffff"/>
<stop offset="1" stop-color="#ffffff" stop-opacity="0.5"/>
</linearGradient>
<path d="M 64.684 21.723 L 41.906 27.425 C 40.690998 27.72 39.702 28.984 39.702 30.236 L 39.702 62.391 C 37.527 61.046997 34.093 60.864 30.696 62.159 C 25.842 64.007 22.904 68.151 24.119 71.414 C 25.342 74.684 30.258 75.821 35.118 73.982 C 39.204 72.422005 41.928 69.243004 41.956 66.329 L 41.966 66.329 L 41.966 38.719 L 64.615 33.063004 L 64.615 56.73 C 62.447 55.38 59.01 55.197 55.609997 56.496 C 50.761997 58.34 47.816998 62.483997 49.035995 65.751 C 50.254997 69.014 55.181995 70.166 60.028996 68.32 C 64.114 66.759 66.839 63.576 66.867 60.66 L 66.879 60.66 L 66.879 23.442 C 66.88 22.198 65.894 21.428 64.684 21.723 " fill="url(#SVGID_3_)" fill-opacity="0.05"/>
<linearGradient gradientTransform="matrix(1 0 0 -1 -126 19)" gradientUnits="userSpaceOnUse" id="SVGID_4_" x1="151.7715" x2="197.8197" xlink:actuate="onLoad" xlink:show="other" xlink:type="simple" y1="-54.2407" y2="-8.1925">
<stop offset="0" stop-color="#ffffff" stop-opacity="0.5"/>
<stop offset="0.5" stop-color="#ffffff"/>
<stop offset="1" stop-color="#ffffff" stop-opacity="0.5"/>
</linearGradient>
<path d="M 64.684 21.343 L 41.906 27.045 C 40.690998 27.34 39.702 28.603 39.702 29.856 L 39.702 62.011 C 37.527 60.666 34.093 60.483 30.696 61.778 C 25.842 63.627 22.904 67.770996 24.119 71.034 C 25.342 74.30399 30.258 75.440994 35.118 73.602 C 39.204 72.041 41.928 68.862 41.956 65.948 L 41.966 65.948 L 41.966 38.339 L 64.615 32.683 L 64.615 56.350998 C 62.447 54.999996 59.01 54.816998 55.609997 56.116997 C 50.761997 57.958996 47.816998 62.103996 49.035995 65.370995 C 50.254997 68.632996 55.181995 69.784996 60.028996 67.938995 C 64.114 66.379 66.839 63.195995 66.867 60.279995 L 66.879 60.279995 L 66.879 23.062 C 66.88 21.818 65.894 21.048 64.684 21.343 " fill="url(#SVGID_4_)" fill-opacity="0.2"/>
<linearGradient gradientTransform="matrix(1 0 0 -1 -126 19)" gradientUnits="userSpaceOnUse" id="SVGID_5_" x1="159.4941" x2="190.0996" xlink:actuate="onLoad" xlink:show="other" xlink:type="simple" y1="-15.5332" y2="-46.1387">
<stop offset="0" stop-color="#4e4e4e"/>
<stop offset="0.22" stop-color="#4e4e4e"/>
<stop offset="0.28" stop-color="#383838"/>
<stop offset="0.52" stop-color="#1c1c1c"/>
<stop offset="1" stop-color="#303030"/>
</linearGradient>
<path d="M 64.684 20.963 L 41.906 26.664999 C 40.690998 26.96 39.702 28.223999 39.702 29.476 L 39.702 61.630997 C 37.527 60.285995 34.093 60.102997 30.696 61.399 C 25.842 63.246998 22.904 67.391 24.119 70.653 C 25.342 73.923996 30.258 75.061 35.118 73.221 C 39.204 71.662 41.928 68.482 41.956 65.569 L 41.966 65.569 L 41.966 37.959 L 64.615 32.303 L 64.615 55.97 C 62.447 54.620003 59.01 54.437 55.609997 55.736 C 50.761997 57.58 47.816998 61.724 49.035995 64.992 C 50.254997 68.254 55.181995 69.406 60.028996 67.559 C 64.114 65.999 66.839 62.815998 66.867 59.899998 L 66.879 59.899998 L 66.879 22.682 C 66.88 21.438 65.894 20.668 64.684 20.963 " fill="url(#SVGID_5_)"/>
<path d="M 30.696 61.397 C 26.408998 63.029 23.619 66.453 23.862999 69.477 C 24.092 66.657 26.765999 63.654 30.696 62.156998 C 34.093 60.862 37.528 61.046997 39.702 62.39 L 39.702 61.63 C 37.527 60.286 34.093 60.103 30.696 61.397 z M 64.684 20.963 L 41.906 26.664999 C 40.690998 26.96 39.702 28.223999 39.702 29.476 L 39.702 30.236 C 39.702 28.984 40.69 27.721 41.906 27.425 L 64.684 21.723 C 65.895 21.428 66.88 22.198 66.88 23.442 L 66.88 22.682 C 66.88 21.438 65.894 20.668 64.684 20.963 z M 55.611 55.736 C 51.331 57.363 48.535 60.785 48.779 63.814 C 49.008 60.989998 51.684998 57.988 55.611 56.496 C 59.01 55.197 62.447998 55.380997 64.616 56.73 L 64.616 55.97 C 62.448 54.621 59.011 54.438 55.611 55.736 z " fill-opacity="0.15"/>
<path d="M 55.611 55.736 C 51.412 57.332 48.642 60.656 48.768 63.639 C 48.88 60.757 51.589 57.645 55.611 56.116 C 59.01 54.817 62.447998 55.0 64.616 56.350002 L 64.616 55.97 C 62.448 54.621 59.011 54.438 55.611 55.736 z M 30.696 61.397 C 26.491999 62.998 23.727 66.322 23.852 69.303 C 23.963999 66.424 26.668999 63.31 30.696 61.777 C 34.093 60.482002 37.528 60.666 39.702 62.010002 L 39.702 61.63 C 37.527 60.286 34.093 60.103 30.696 61.397 z M 64.684 20.963 L 41.906 26.664999 C 40.690998 26.96 39.702 28.223999 39.702 29.476 L 39.702 29.855999 C 39.702 28.603998 40.69 27.341 41.906 27.044998 L 64.684 21.342999 C 65.895 21.047998 66.88 21.817999 66.88 23.061998 L 66.88 22.682 C 66.88 21.438 65.894 20.668 64.684 20.963 z " fill-opacity="0.3"/>
</svg>
