<?xml version="1.0" encoding="UTF-8"?>
<svg xmlns="http://www.w3.org/2000/svg" xmlns:xlink="http://www.w3.org/1999/xlink" baseProfile="tiny" contentScriptType="text/ecmascript" contentStyleType="text/css" height="42px" preserveAspectRatio="xMidYMid meet" version="1.1" viewBox="0 0 42 42" width="42px" x="0px" y="0px" zoomAndPan="magnify">
<path d="M 21.0 1.0 L 21.0 1.0 C 6.184 1.0 1.0 6.183 1.0 21.0 C 1.0 35.816 6.184 41.0 21.0 41.0 L 21.0 41.0 C 35.813 41.0 41.0 35.817 41.0 21.0 C 41.0 6.183 35.813 1.0 21.0 1.0 z " fill="#b3c445"/>
<rect fill="none" height="42" width="42"/>
<linearGradient gradientUnits="userSpaceOnUse" id="SVGID_1_" x1="21.0005" x2="21.0005" xlink:actuate="onLoad" xlink:show="other" xlink:type="simple" y1="41" y2="1.0005">
<stop offset="0" stop-color="#ffffff"/>
<stop offset="1" stop-color="#ffffff" stop-opacity="0"/>
</linearGradient>
<path d="M 21.0 1.0 L 21.0 1.0 C 6.185 1.0 1.0 6.183 1.0 21.0 C 1.0 35.816 6.185 41.0 21.0 41.0 L 21.0 41.0 C 35.813 41.0 41.0 35.817 41.0 21.0 C 41.0 6.183 35.813 1.0 21.0 1.0 z " fill="url(#SVGID_1_)" fill-opacity="0.15"/>
</svg>
