<?xml version="1.0" encoding="UTF-8"?>
<svg xmlns="http://www.w3.org/2000/svg" xmlns:xlink="http://www.w3.org/1999/xlink" baseProfile="tiny" contentScriptType="text/ecmascript" contentStyleType="text/css" height="96px" preserveAspectRatio="xMidYMid meet" version="1.1" viewBox="0 0 96 96" width="96px" x="0px" y="0px" zoomAndPan="magnify">
<circle cx="56.5" cy="39.5" fill="#4ea6c6" r="37.5" transform="matrix(1.2115254,0,0,1.2115254,-19.883389,-0.42305085)"/>
<circle cx="56.5" cy="39.5" fill="#26a3d7" r="31.5" transform="matrix(1.2776433,0,0,1.2776433,-23.622586,-3.2080286)"/>
<path d="M 56.922382 46.817944 L 73.95469 29.788391 C 74.80508 28.93526 74.80508 27.546358 73.95469 26.69598 L 69.30577 22.04844 C 68.448524 21.192562 67.069244 21.192562 66.21061 22.04844 L 49.17968 39.07661 L 32.152874 22.048431 C 31.296995 21.193932 29.90947 21.193932 29.05222 22.048431 L 24.410166 26.697351 C 23.55017 27.547731 23.55017 28.93526 24.410166 29.789762 L 41.442463 46.819317 L 24.410172 63.84475 C 23.550177 64.706116 23.550177 66.0964 24.410172 66.94403 L 29.052223 71.591576 C 29.905348 72.45294 31.295628 72.45294 32.152874 71.591576 L 49.17968 54.56202 L 66.21061 71.591576 C 67.06648 72.45294 68.44577 72.45294 69.30577 71.591576 L 73.95469 66.94403 C 74.80508 66.099144 74.80508 64.70887 73.95469 63.84475 L 56.922382 46.817944 z " fill="#ffffff"/>
<rect fill="none" height="96" width="96"/>
</svg>
