<?xml version="1.0" encoding="UTF-8"?>
<svg xmlns="http://www.w3.org/2000/svg" xmlns:xlink="http://www.w3.org/1999/xlink" baseProfile="tiny" contentScriptType="text/ecmascript" contentStyleType="text/css" height="16px" preserveAspectRatio="xMidYMid meet" version="1.1" viewBox="0 0 96 16" width="96px" x="0px" y="0px" zoomAndPan="magnify">
<g>
<g>
<g fill-opacity="0.7" stroke-opacity="0.7">
<g>
<circle cx="70.201" cy="8.744" fill="#ffffff" fill-opacity="0.4" r="2.982" stroke-opacity="0.4"/>
<circle cx="70.201" cy="7.256" fill-opacity="0.9" r="2.982" stroke-opacity="0.9"/>
</g>
<rect fill="none" height="10" width="10" x="65.201" y="3"/>
</g>
<g fill-opacity="0.7" stroke-opacity="0.7">
<g>
<circle cx="55.4" cy="8.744" fill="#ffffff" fill-opacity="0.4" r="2.982" stroke-opacity="0.4"/>
<circle cx="55.4" cy="7.256" fill-opacity="0.9" r="2.982" stroke-opacity="0.9"/>
</g>
<rect fill="none" height="10" width="10" x="50.4" y="3"/>
</g>
<g fill-opacity="0.7" stroke-opacity="0.7">
<g>
<circle cx="40.6" cy="8.744" fill="#ffffff" fill-opacity="0.4" r="2.982" stroke-opacity="0.4"/>
<circle cx="40.6" cy="7.256" fill-opacity="0.9" r="2.982" stroke-opacity="0.9"/>
</g>
<rect fill="none" height="10" width="10" x="35.6" y="3"/>
</g>
<g fill-opacity="0.7" stroke-opacity="0.7">
<g>
<path d="M 25.799 12.698 C 22.504 12.698 21.1 11.294 21.1 8.000999 C 21.1 4.7059994 22.504 3.3029995 25.799 3.3029995 C 29.092 3.3029995 30.498 4.7059994 30.498 8.000999 C 30.498 11.294 29.092 12.698 25.799 12.698 z " fill-opacity="0.1" stroke-opacity="0.1"/>
<path d="M 25.799 5.181 C 28.58 5.181 29.557 6.156 29.557 8.942 C 29.557 11.724001 28.58 12.699 25.799 12.699 C 23.012 12.699 22.041 11.724 22.041 8.942 C 22.041 6.155 23.012 5.181 25.799 5.181 z " fill-opacity="0.5" stroke-opacity="0.5"/>
<path d="M 25.799 4.242 C 28.58 4.242 29.557 5.216 29.557 8.001 C 29.557 10.785 28.58 11.759001 25.799 11.759001 C 23.012 11.759001 22.041 10.785001 22.041 8.001001 C 22.041 5.216 23.012 4.242 25.799 4.242 z " fill="#8fe2ed"/>
</g>
<rect fill="none" height="10" width="10" x="20.799" y="3"/>
</g>
</g>
<rect fill="none" height="16" width="96"/>
</g>
</svg>
