<?xml version="1.0" encoding="UTF-8"?>
<svg xmlns="http://www.w3.org/2000/svg" xmlns:xlink="http://www.w3.org/1999/xlink" baseProfile="tiny" contentScriptType="text/ecmascript" contentStyleType="text/css" height="16px" preserveAspectRatio="xMidYMid meet" version="1.1" viewBox="0 0 96 16" width="96px" x="0px" y="0px" zoomAndPan="magnify">
<g>
<rect fill="none" height="16" width="96" x="0"/>
<g fill-opacity="0.7" stroke-opacity="0.7">
<g>
<path d="M 48.0 12.698 C 44.705 12.698 43.301 11.294 43.301 8.000999 C 43.301 4.7059994 44.705 3.3029995 48.0 3.3029995 C 51.293 3.3029995 52.7 4.7059994 52.7 8.000999 C 52.699 11.294 51.293 12.698 48.0 12.698 z " fill-opacity="0.1" stroke-opacity="0.1"/>
<path d="M 48.0 5.181 C 50.782 5.181 51.758 6.156 51.758 8.942 C 51.758 11.724001 50.781 12.699 48.0 12.699 C 45.213 12.699 44.242 11.724 44.242 8.942 C 44.242 6.155 45.212 5.181 48.0 5.181 z " fill-opacity="0.5" stroke-opacity="0.5"/>
<path d="M 48.0 4.242 C 50.782 4.242 51.758 5.216 51.758 8.001 C 51.758 10.785 50.781 11.759001 48.0 11.759001 C 45.213 11.759001 44.242 10.785001 44.242 8.001001 C 44.242 5.216 45.212 4.242 48.0 4.242 z " fill="#8fe2ed"/>
</g>
<rect fill="none" height="10" width="10" x="43" y="3"/>
</g>
</g>
</svg>
